<svg width="55" height="69" viewBox="0 0 55 69" fill="none" xmlns="http://www.w3.org/2000/svg">
<mask id="path-1-outside-1_436_375" maskUnits="userSpaceOnUse" x="0" y="0" width="45" height="60" fill="black">
<rect fill="white" width="45" height="60"/>
<path fill-rule="evenodd" clip-rule="evenodd" d="M29.9243 1.0099C29.9648 1.00443 30.0058 1.00115 30.0463 1.00005C30.3352 0.997323 30.6157 1.09707 30.8384 1.28091C30.8701 1.30663 30.9008 1.33344 30.9298 1.36244L43.5237 13.9564C43.5478 13.9815 43.5713 14.0083 43.5932 14.0351C43.6167 14.0631 43.6391 14.0921 43.6599 14.1216C43.6627 14.1249 43.6649 14.1282 43.6671 14.1314C43.6829 14.155 43.6982 14.1785 43.7125 14.2031C43.716 14.2091 43.7194 14.215 43.7228 14.221C43.7257 14.2261 43.7286 14.2312 43.7316 14.2365C43.7349 14.2425 43.7382 14.2491 43.7415 14.2557C43.7568 14.2857 43.771 14.3169 43.7841 14.3487C43.8 14.3864 43.8131 14.4247 43.8252 14.4636C43.8695 14.6069 43.8876 14.7569 43.8777 14.9068V37.2288C43.0766 37.1001 42.2577 37.0243 41.4249 37.005V16.0452H30.0615C29.388 16.0425 28.843 15.4975 28.8403 14.8245V3.46057H3.45355L3.45445 56.4437H23.0571C23.1233 57.2781 23.2464 58.0964 23.4225 58.8949H2.23276C1.90555 58.8965 1.59148 58.7674 1.36003 58.5365C1.12859 58.3056 0.998912 57.9915 1.00001 57.6643V2.23061C0.999461 1.59974 1.47821 1.07119 2.10581 1.0099C2.14739 1.00771 2.18897 1.00771 2.23056 1.0099H29.9243ZM39.6867 13.594L31.2845 5.18906V13.594H39.6867ZM12.3312 25.0298C12.3317 25.0296 12.3322 25.0293 12.3327 25.0289C12.3738 25.0278 12.4143 25.0284 12.4548 25.0317H32.4319C32.7613 25.024 33.0803 25.1499 33.3161 25.3808C33.5519 25.6111 33.6849 25.9274 33.6849 26.2573C33.6849 26.5867 33.5519 26.903 33.3161 27.1333C33.0803 27.3642 32.7613 27.49 32.4319 27.4829H12.4548C11.7878 27.5026 11.2269 26.9856 11.1925 26.3191C11.158 25.6527 11.6625 25.0804 12.3284 25.0317C12.3291 25.0309 12.3301 25.0304 12.3312 25.0298ZM11.1656 35.8468C11.1306 35.1695 11.6504 34.5917 12.3278 34.5561C12.3699 34.5539 12.4126 34.5545 12.4548 34.5566H32.4319C32.7574 34.5561 33.0699 34.6852 33.3002 34.9156C33.5306 35.1454 33.6597 35.4578 33.6597 35.7834C33.6597 36.1089 33.5306 36.4214 33.3002 36.6512C33.0699 36.8815 32.7574 37.0106 32.4319 37.0101H12.4548C11.7779 37.0446 11.2007 36.5237 11.1656 35.8468ZM11.5702 44.4328C11.806 44.2025 12.1245 44.0766 12.4539 44.0837H23.8829C24.2123 44.0766 24.5313 44.2025 24.7672 44.4328C25.003 44.6637 25.1359 44.9794 25.1359 45.3094C25.1359 45.6393 25.003 45.9556 24.7672 46.1859C24.5313 46.4168 24.2123 46.5427 23.8829 46.535H12.4544C12.125 46.5427 11.806 46.4168 11.5702 46.1859C11.3344 45.9556 11.2014 45.6393 11.2014 45.3094C11.2014 44.9794 11.3344 44.6637 11.5702 44.4328Z"/>
</mask>
<path fill-rule="evenodd" clip-rule="evenodd" d="M29.9243 1.0099C29.9648 1.00443 30.0058 1.00115 30.0463 1.00005C30.3352 0.997323 30.6157 1.09707 30.8384 1.28091C30.8701 1.30663 30.9008 1.33344 30.9298 1.36244L43.5237 13.9564C43.5478 13.9815 43.5713 14.0083 43.5932 14.0351C43.6167 14.0631 43.6391 14.0921 43.6599 14.1216C43.6627 14.1249 43.6649 14.1282 43.6671 14.1314C43.6829 14.155 43.6982 14.1785 43.7125 14.2031C43.716 14.2091 43.7194 14.215 43.7228 14.221C43.7257 14.2261 43.7286 14.2312 43.7316 14.2365C43.7349 14.2425 43.7382 14.2491 43.7415 14.2557C43.7568 14.2857 43.771 14.3169 43.7841 14.3487C43.8 14.3864 43.8131 14.4247 43.8252 14.4636C43.8695 14.6069 43.8876 14.7569 43.8777 14.9068V37.2288C43.0766 37.1001 42.2577 37.0243 41.4249 37.005V16.0452H30.0615C29.388 16.0425 28.843 15.4975 28.8403 14.8245V3.46057H3.45355L3.45445 56.4437H23.0571C23.1233 57.2781 23.2464 58.0964 23.4225 58.8949H2.23276C1.90555 58.8965 1.59148 58.7674 1.36003 58.5365C1.12859 58.3056 0.998912 57.9915 1.00001 57.6643V2.23061C0.999461 1.59974 1.47821 1.07119 2.10581 1.0099C2.14739 1.00771 2.18897 1.00771 2.23056 1.0099H29.9243ZM39.6867 13.594L31.2845 5.18906V13.594H39.6867ZM12.3312 25.0298C12.3317 25.0296 12.3322 25.0293 12.3327 25.0289C12.3738 25.0278 12.4143 25.0284 12.4548 25.0317H32.4319C32.7613 25.024 33.0803 25.1499 33.3161 25.3808C33.5519 25.6111 33.6849 25.9274 33.6849 26.2573C33.6849 26.5867 33.5519 26.903 33.3161 27.1333C33.0803 27.3642 32.7613 27.49 32.4319 27.4829H12.4548C11.7878 27.5026 11.2269 26.9856 11.1925 26.3191C11.158 25.6527 11.6625 25.0804 12.3284 25.0317C12.3291 25.0309 12.3301 25.0304 12.3312 25.0298ZM11.1656 35.8468C11.1306 35.1695 11.6504 34.5917 12.3278 34.5561C12.3699 34.5539 12.4126 34.5545 12.4548 34.5566H32.4319C32.7574 34.5561 33.0699 34.6852 33.3002 34.9156C33.5306 35.1454 33.6597 35.4578 33.6597 35.7834C33.6597 36.1089 33.5306 36.4214 33.3002 36.6512C33.0699 36.8815 32.7574 37.0106 32.4319 37.0101H12.4548C11.7779 37.0446 11.2007 36.5237 11.1656 35.8468ZM11.5702 44.4328C11.806 44.2025 12.1245 44.0766 12.4539 44.0837H23.8829C24.2123 44.0766 24.5313 44.2025 24.7672 44.4328C25.003 44.6637 25.1359 44.9794 25.1359 45.3094C25.1359 45.6393 25.003 45.9556 24.7672 46.1859C24.5313 46.4168 24.2123 46.5427 23.8829 46.535H12.4544C12.125 46.5427 11.806 46.4168 11.5702 46.1859C11.3344 45.9556 11.2014 45.6393 11.2014 45.3094C11.2014 44.9794 11.3344 44.6637 11.5702 44.4328Z" fill="#341907"/>
<path d="M30.0463 1.00005L30.0425 0.600011L30.0355 0.600201L30.0463 1.00005ZM29.9243 1.0099V1.4099H29.9512L29.9779 1.4063L29.9243 1.0099ZM30.8384 1.28091L30.5837 1.58939L30.5866 1.59169L30.8384 1.28091ZM30.9298 1.36244L31.2126 1.0796V1.0796L30.9298 1.36244ZM43.5237 13.9564L43.8128 13.6798L43.8065 13.6735L43.5237 13.9564ZM43.5932 14.0351L43.2833 14.2881L43.2874 14.293L43.5932 14.0351ZM43.6599 14.1216L43.3328 14.3518L43.3422 14.3651L43.3526 14.3777L43.6599 14.1216ZM43.6671 14.1314L43.3343 14.3534L43.3354 14.3551L43.6671 14.1314ZM43.7125 14.2031L43.3661 14.4033L43.3695 14.4089L43.7125 14.2031ZM43.7228 14.221L43.3748 14.4182L43.3749 14.4184L43.7228 14.221ZM43.7316 14.2365L44.0828 14.0449L44.0789 14.0381L43.7316 14.2365ZM43.7415 14.2557L43.3837 14.4346L43.385 14.4371L43.7415 14.2557ZM43.7841 14.3487L43.4145 14.5016L43.4154 14.5037L43.7841 14.3487ZM43.8252 14.4636L44.2073 14.3454L44.2073 14.3452L43.8252 14.4636ZM43.8777 14.9068L43.4786 14.8806L43.4777 14.8937V14.9068H43.8777ZM43.8777 37.2288L43.8143 37.6238L44.2777 37.6982V37.2288H43.8777ZM41.4249 37.005H41.0249V37.3958L41.4157 37.4049L41.4249 37.005ZM41.4249 16.0452H41.8249V15.6452H41.4249V16.0452ZM30.0615 16.0452L30.0599 16.4452H30.0615V16.0452ZM28.8403 14.8245H28.4403L28.4403 14.8261L28.8403 14.8245ZM28.8403 3.46057H29.2403V3.06057H28.8403V3.46057ZM3.45355 3.46057V3.06057H3.05354L3.05355 3.46058L3.45355 3.46057ZM3.45445 56.4437L3.05445 56.4437L3.05446 56.8437H3.45445V56.4437ZM23.0571 56.4437L23.4558 56.4121L23.4266 56.0437H23.0571V56.4437ZM23.4225 58.8949V59.2949H23.9203L23.8131 58.8087L23.4225 58.8949ZM2.23276 58.8949V58.4949L2.23075 58.4949L2.23276 58.8949ZM1.36003 58.5365L1.07752 58.8196L1.07753 58.8196L1.36003 58.5365ZM1.00001 57.6643L1.40001 57.6656V57.6643H1.00001ZM1.00001 2.23061H1.40001L1.40001 2.23026L1.00001 2.23061ZM2.10581 1.0099L2.08478 0.610456L2.07584 0.610927L2.06693 0.611797L2.10581 1.0099ZM2.23056 1.0099L2.20954 1.40935L2.22004 1.4099H2.23056V1.0099ZM31.2845 5.18906L31.5674 4.90627L30.8846 4.22315V5.18906H31.2845ZM39.6867 13.594V13.994H40.6521L39.9696 13.3112L39.6867 13.594ZM31.2845 13.594H30.8846V13.994H31.2845V13.594ZM12.3327 25.0289L12.3221 24.6291L12.2068 24.6321L12.1109 24.6961L12.3327 25.0289ZM12.3312 25.0298L12.1412 24.6778L12.1407 24.6781L12.3312 25.0298ZM12.4548 25.0317L12.4224 25.4304L12.4386 25.4317H12.4548V25.0317ZM32.4319 25.0317V25.4318L32.4412 25.4316L32.4319 25.0317ZM33.3161 25.3808L33.0363 25.6666L33.0366 25.6669L33.3161 25.3808ZM33.3161 27.1333L33.0366 26.8472L33.0363 26.8475L33.3161 27.1333ZM32.4319 27.4829L32.4405 27.0829H32.4319V27.4829ZM12.4548 27.4829V27.0828L12.4429 27.0831L12.4548 27.4829ZM11.1925 26.3191L11.5919 26.2985L11.1925 26.3191ZM12.3284 25.0317L12.3575 25.4306L12.5061 25.4197L12.6114 25.3143L12.3284 25.0317ZM12.3278 34.5561L12.3071 34.1566L12.3068 34.1567L12.3278 34.5561ZM11.1656 35.8468L10.7662 35.8675L10.7662 35.8675L11.1656 35.8468ZM12.4548 34.5566L12.434 34.9561L12.4444 34.9566H12.4548V34.5566ZM32.4319 34.5566V34.9566H32.4326L32.4319 34.5566ZM33.3002 34.9156L33.0174 35.1984L33.0177 35.1988L33.3002 34.9156ZM33.3002 36.6512L33.0177 36.368L33.0174 36.3683L33.3002 36.6512ZM32.4319 37.0101L32.4326 36.6101H32.4319V37.0101ZM12.4548 37.0101V36.6101H12.4446L12.4344 36.6106L12.4548 37.0101ZM12.4539 44.0837L12.4452 44.4837H12.4539V44.0837ZM11.5702 44.4328L11.2907 44.1467L11.2904 44.147L11.5702 44.4328ZM23.8829 44.0837V44.4838L23.8916 44.4836L23.8829 44.0837ZM24.7672 44.4328L25.047 44.147L25.0467 44.1467L24.7672 44.4328ZM24.7672 46.1859L24.4876 45.8998L24.4873 45.9001L24.7672 46.1859ZM23.8829 46.535L23.8922 46.135H23.8829V46.535ZM12.4544 46.535V46.1349L12.4451 46.1351L12.4544 46.535ZM11.5702 46.1859L11.8501 45.9001L11.8497 45.8998L11.5702 46.1859ZM30.0355 0.600201C29.9809 0.601677 29.9256 0.606097 29.8707 0.613507L29.9779 1.4063C30.004 1.40277 30.0308 1.40062 30.0571 1.39991L30.0355 0.600201ZM31.0931 0.972451C30.798 0.728835 30.426 0.596447 30.0425 0.600073L30.0501 1.40004C30.2444 1.3982 30.4335 1.4653 30.5837 1.58937L31.0931 0.972451ZM31.2126 1.0796C31.1713 1.03825 31.1296 1.00206 31.0902 0.97014L30.5866 1.59169C30.6106 1.6112 30.6303 1.62863 30.6469 1.64528L31.2126 1.0796ZM43.8065 13.6735L31.2126 1.0796L30.6469 1.64528L43.2409 14.2392L43.8065 13.6735ZM43.9031 13.7822C43.8751 13.748 43.8447 13.7133 43.8128 13.6799L43.2346 14.2328C43.2508 14.2498 43.2675 14.2687 43.2833 14.2881L43.9031 13.7822ZM43.9871 13.8914C43.9593 13.852 43.9297 13.8138 43.899 13.7773L43.2874 14.293C43.3037 14.3124 43.319 14.3321 43.3328 14.3518L43.9871 13.8914ZM43.9998 13.9095C43.9989 13.9081 43.9856 13.8876 43.9672 13.8655L43.3526 14.3777C43.3456 14.3692 43.3404 14.3621 43.3373 14.3578C43.3347 14.3541 43.3327 14.351 43.3343 14.3534L43.9998 13.9095ZM44.0588 14.003C44.0378 13.9667 44.0166 13.9344 43.9987 13.9078L43.3354 14.3551C43.3492 14.3756 43.3587 14.3903 43.3661 14.4032L44.0588 14.003ZM44.0709 14.0239C44.067 14.017 44.0616 14.0076 44.0555 13.9973L43.3695 14.4089C43.3704 14.4105 43.3719 14.413 43.3748 14.4182L44.0709 14.0239ZM44.0789 14.0381C44.0762 14.0333 44.0748 14.0309 44.0708 14.0237L43.3749 14.4184C43.3766 14.4214 43.381 14.4292 43.3843 14.4349L44.0789 14.0381ZM44.0992 14.0767C44.0967 14.0717 44.0901 14.0584 44.0827 14.0449L43.3805 14.4281C43.3798 14.4268 43.3796 14.4264 43.3803 14.4278C43.381 14.4292 43.3819 14.431 43.3837 14.4346L44.0992 14.0767ZM44.1538 14.1957C44.137 14.1553 44.1185 14.1145 44.0979 14.0742L43.385 14.4371C43.3951 14.457 43.405 14.4785 43.4145 14.5016L44.1538 14.1957ZM44.2073 14.3452C44.193 14.2992 44.1756 14.2476 44.1529 14.1937L43.4154 14.5037C43.4245 14.5253 43.4333 14.5503 43.4431 14.582L44.2073 14.3452ZM44.2768 14.933C44.2899 14.7336 44.2659 14.5348 44.2073 14.3454L43.443 14.5817C43.4731 14.6791 43.4852 14.7801 43.4786 14.8806L44.2768 14.933ZM44.2777 37.2288V14.9068H43.4777V37.2288H44.2777ZM41.4157 37.4049C42.2303 37.4237 43.031 37.4979 43.8143 37.6238L43.9412 36.8339C43.1222 36.7023 42.2852 36.6248 41.4342 36.6051L41.4157 37.4049ZM41.0249 16.0452V37.005H41.8249V16.0452H41.0249ZM30.0615 16.4452H41.4249V15.6452H30.0615V16.4452ZM28.4403 14.8261C28.4439 15.7189 29.1668 16.4416 30.0599 16.4452L30.0632 15.6452C29.6091 15.6434 29.2421 15.2761 29.2403 14.8229L28.4403 14.8261ZM28.4403 3.46057V14.8245H29.2403V3.46057H28.4403ZM3.45355 3.86057H28.8403V3.06057H3.45355V3.86057ZM3.85445 56.4437L3.85355 3.46056L3.05355 3.46058L3.05445 56.4437L3.85445 56.4437ZM23.0571 56.0437H3.45445V56.8437H23.0571V56.0437ZM23.8131 58.8087C23.6409 58.0281 23.5205 57.228 23.4558 56.4121L22.6583 56.4754C22.726 57.3282 22.8518 58.1647 23.0319 58.981L23.8131 58.8087ZM2.23276 59.2949H23.4225V58.4949H2.23276V59.2949ZM1.07753 58.8196C1.38438 59.1258 1.80084 59.297 2.23476 59.2949L2.23075 58.4949C2.01026 58.496 1.79857 58.409 1.64254 58.2533L1.07753 58.8196ZM0.600009 57.663C0.598558 58.0968 0.770491 58.5133 1.07752 58.8196L1.64255 58.2533C1.48669 58.0978 1.39927 57.8862 1.4 57.6656L0.600009 57.663ZM0.600007 2.23061V57.6643H1.40001V2.23061H0.600007ZM2.06693 0.611797C1.23414 0.693116 0.599283 1.39428 0.600007 2.23095L1.40001 2.23026C1.39964 1.80519 1.72229 1.44925 2.14468 1.40801L2.06693 0.611797ZM2.25158 0.610456C2.19599 0.607531 2.14037 0.607531 2.08478 0.610456L2.12683 1.40935C2.15441 1.4079 2.18196 1.4079 2.20954 1.40935L2.25158 0.610456ZM29.9243 0.609903H2.23056V1.4099H29.9243V0.609903ZM31.0017 5.47186L39.4038 13.8768L39.9696 13.3112L31.5674 4.90627L31.0017 5.47186ZM31.6845 13.594V5.18906H30.8846V13.594H31.6845ZM39.6867 13.194H31.2845V13.994H39.6867V13.194ZM12.1109 24.6961C12.1255 24.6863 12.1375 24.6798 12.1412 24.6778L12.5212 25.3818C12.5259 25.3793 12.539 25.3722 12.5546 25.3617L12.1109 24.6961ZM12.4871 24.633C12.4288 24.6283 12.3735 24.6277 12.3221 24.6291L12.3434 25.4288C12.374 25.428 12.3997 25.4285 12.4224 25.4304L12.4871 24.633ZM32.4319 24.6317H12.4548V25.4317H32.4319V24.6317ZM33.5959 25.0949C33.2831 24.7887 32.8599 24.6216 32.4226 24.6318L32.4412 25.4316C32.6627 25.4264 32.8774 25.5111 33.0363 25.6666L33.5959 25.0949ZM34.0849 26.2573C34.0849 25.8199 33.9086 25.4004 33.5956 25.0946L33.0366 25.6669C33.1952 25.8218 33.2849 26.0348 33.2849 26.2573H34.0849ZM33.5956 27.4194C33.9086 27.1137 34.0849 26.6943 34.0849 26.2573H33.2849C33.2849 26.4791 33.1953 26.6922 33.0366 26.8472L33.5956 27.4194ZM32.4233 27.8828C32.8601 27.8923 33.2831 27.7254 33.5959 27.4191L33.0363 26.8475C32.8774 27.003 32.6625 27.0878 32.4405 27.083L32.4233 27.8828ZM12.4548 27.8829H32.4319V27.0829H12.4548V27.8829ZM10.793 26.3398C10.8387 27.2234 11.5822 27.9089 12.4666 27.8828L12.4429 27.0831C11.9933 27.0964 11.6152 26.7477 11.5919 26.2985L10.793 26.3398ZM12.2992 24.6327C11.4161 24.6973 10.7473 25.4562 10.793 26.3398L11.5919 26.2985C11.5687 25.8491 11.9089 25.4634 12.3575 25.4306L12.2992 24.6327ZM12.1407 24.6781C12.1416 24.6776 12.1424 24.6772 12.1421 24.6774C12.1421 24.6774 12.1418 24.6775 12.1415 24.6777C12.1411 24.6779 12.1405 24.6782 12.1398 24.6786C12.1375 24.6798 12.1312 24.6833 12.1235 24.6879C12.1085 24.6969 12.0777 24.7166 12.0453 24.749L12.6114 25.3143C12.5797 25.346 12.5499 25.365 12.5359 25.3734C12.5286 25.3778 12.5228 25.3809 12.521 25.3819C12.5201 25.3825 12.5192 25.3829 12.5195 25.3827C12.5196 25.3827 12.5199 25.3825 12.5202 25.3824C12.5206 25.3822 12.5211 25.3819 12.5217 25.3815L12.1407 24.6781ZM12.3068 34.1567C11.4086 34.2038 10.7198 34.97 10.7662 35.8675L11.5651 35.8262C11.5415 35.369 11.8922 34.9795 12.3488 34.9556L12.3068 34.1567ZM12.4755 34.1572C12.4232 34.1545 12.3662 34.1536 12.3071 34.1566L12.3486 34.9556C12.3737 34.9543 12.402 34.9544 12.434 34.9561L12.4755 34.1572ZM32.4319 34.1567H12.4548V34.9566H32.4319V34.1567ZM33.5831 34.6327C33.2776 34.3273 32.8631 34.1559 32.4312 34.1567L32.4326 34.9566C32.6517 34.9563 32.8622 35.0432 33.0174 35.1984L33.5831 34.6327ZM34.0597 35.7834C34.0597 35.352 33.8886 34.9376 33.5827 34.6324L33.0177 35.1988C33.1725 35.3532 33.2597 35.5636 33.2597 35.7834H34.0597ZM33.5827 36.9343C33.8886 36.6292 34.0597 36.2147 34.0597 35.7834H33.2597C33.2597 36.0031 33.1725 36.2135 33.0177 36.368L33.5827 36.9343ZM32.4312 37.4101C32.8631 37.4108 33.2776 37.2395 33.5831 36.934L33.0174 36.3683C32.8622 36.5235 32.6517 36.6105 32.4326 36.6101L32.4312 37.4101ZM12.4548 37.4101H32.4319V36.6101H12.4548V37.4101ZM10.7662 35.8675C10.8126 36.7648 11.5777 37.4553 12.4751 37.4096L12.4344 36.6106C11.9781 36.6339 11.5887 36.2825 11.5651 35.8262L10.7662 35.8675ZM12.4625 43.6838C12.0256 43.6744 11.6033 43.8413 11.2907 44.1467L11.8497 44.719C12.0088 44.5636 12.2234 44.4789 12.4452 44.4836L12.4625 43.6838ZM23.8829 43.6837H12.4539V44.4837H23.8829V43.6837ZM25.0467 44.1467C24.7339 43.8412 24.3111 43.6744 23.8743 43.6838L23.8916 44.4836C24.1136 44.4788 24.3287 44.5637 24.4876 44.719L25.0467 44.1467ZM25.5359 45.3094C25.5359 44.8717 25.3595 44.453 25.047 44.147L24.4873 44.7186C24.6464 44.8744 24.7359 45.0872 24.7359 45.3094H25.5359ZM25.0467 46.4721C25.3597 46.1663 25.5359 45.7468 25.5359 45.3094H24.7359C24.7359 45.5318 24.6463 45.7449 24.4876 45.8998L25.0467 46.4721ZM23.8736 46.9349C24.3109 46.9451 24.7342 46.778 25.047 46.4717L24.4873 45.9001C24.3285 46.0556 24.1137 46.1403 23.8922 46.1351L23.8736 46.9349ZM12.4544 46.935H23.8829V46.135H12.4544V46.935ZM11.2904 46.4717C11.6032 46.778 12.0264 46.9451 12.4637 46.9349L12.4451 46.1351C12.2236 46.1403 12.0089 46.0556 11.8501 45.9001L11.2904 46.4717ZM10.8014 45.3094C10.8014 45.7468 10.9777 46.1663 11.2907 46.4721L11.8497 45.8998C11.6911 45.7449 11.6014 45.5318 11.6014 45.3094H10.8014ZM11.2904 44.147C10.9779 44.453 10.8014 44.8717 10.8014 45.3094H11.6014C11.6014 45.0872 11.6909 44.8744 11.8501 44.7186L11.2904 44.147Z" fill="#341907" mask="url(#path-1-outside-1_436_375)"/>
<path d="M29.843 45.2496L29.7692 45.1725C29.5049 44.8964 29.5147 44.4586 29.7904 44.1947M29.843 45.2496L49.6801 44.2159L49.8606 44.3888L49.68 44.2159C44.5092 49.6157 35.9204 49.5963 30.7684 44.216M29.843 45.2496H29.8441M29.843 45.2496H29.8441M29.7904 44.1947C30.0661 43.9304 30.5044 43.9397 30.7684 44.216M29.7904 44.1947C29.7905 44.1946 29.7905 44.1946 29.7905 44.1946L29.9634 44.3752L29.7903 44.1947C29.7904 44.1947 29.7904 44.1947 29.7904 44.1947ZM30.7684 44.216C30.7685 44.216 30.7685 44.216 30.7685 44.2161L30.5878 44.3888L30.7683 44.2159C30.7684 44.2159 30.7684 44.2159 30.7684 44.216ZM29.8441 45.2496H29.9498H29.9504V44.9996L29.9498 45.0001L29.7698 45.1725C29.7945 45.1983 29.8193 45.224 29.8441 45.2496ZM50.4986 44.9996L50.6791 45.1726C50.6791 45.1726 50.6791 45.1725 50.6792 45.1725L50.4986 44.9996ZM50.6581 44.1947C50.658 44.1947 50.6579 44.1946 50.6579 44.1946L50.485 44.3752L50.6581 44.1947Z" fill="#F0BF35" stroke="#F0BF35" stroke-width="0.5"/>
<path d="M30.7675 64.2318C35.9175 58.8538 44.4581 58.8513 49.6168 64.1671L49.6784 64.2316C49.9425 64.508 50.3807 64.5173 50.6565 64.2531C50.9323 63.9892 50.9421 63.5514 50.6778 63.2752L50.6778 63.2752C44.9615 57.3049 35.4642 57.3268 29.7685 63.2751C29.504 63.5509 29.5135 63.9888 29.7896 64.2531L29.7896 64.2531C30.0654 64.517 30.5031 64.5076 30.7674 64.232L30.7675 64.2318Z" fill="#F0BF35" stroke="#F0BF35" stroke-width="0.5"/>
<path d="M39.9189 68.5941C32.5817 64.059 29.7086 54.128 34.2135 45.9373C35.6062 43.405 37.5782 41.3007 39.9188 39.8539C39.9188 39.8539 39.9188 39.8539 39.9189 39.8539L40.0503 40.0665L39.9189 68.5941ZM39.9189 68.5941C40.1417 68.7319 40.4234 68.7319 40.6463 68.594C48.002 64.0467 50.8469 54.111 46.3515 45.9374C44.9591 43.405 42.9872 41.3007 40.6463 39.8539L39.9189 68.5941ZM33.4395 54.2828C33.4395 49.0869 36.1166 44.0255 40.2825 41.2639C44.4484 44.025 47.1255 49.0867 47.1255 54.2828C47.1255 59.4905 44.5118 64.3932 40.2825 67.1848C36.0535 64.3932 33.4395 59.4908 33.4395 54.2828Z" fill="#F0BF35" stroke="#F0BF35" stroke-width="0.5"/>
<path d="M25.751 54.2235C25.751 62.204 32.2432 68.6966 40.224 68.6966C48.2045 68.6966 54.6971 62.204 54.6971 54.2235C54.6971 46.243 48.2045 39.7505 40.224 39.7505C32.2435 39.7505 25.751 46.243 25.751 54.2235ZM27.1338 54.2235C27.1338 47.0058 33.0066 41.1333 40.224 41.1333C47.4418 41.1333 53.3142 47.0057 53.3142 54.2235C53.3142 61.4413 47.4418 67.3137 40.224 67.3137C33.0062 67.3137 27.1338 61.4413 27.1338 54.2235Z" fill="#F0BF35" stroke="#F0BF35" stroke-width="0.5"/>
<path d="M26.4417 54.9152H54.005C54.3869 54.9152 54.6967 54.6054 54.6967 54.2235C54.6967 53.8415 54.3869 53.5317 54.005 53.5317H26.4417C26.0598 53.5317 25.75 53.8415 25.75 54.2235C25.75 54.6054 26.0598 54.9152 26.4417 54.9152Z" fill="#F0BF35" stroke="#F0BF35" stroke-width="0.5"/>
<path d="M39.5322 68.005C39.5322 68.3869 39.842 68.6967 40.224 68.6967C40.6059 68.6967 40.9157 68.3869 40.9157 68.005V40.4417C40.9157 40.0598 40.6059 39.75 40.224 39.75C39.842 39.75 39.5322 40.0598 39.5322 40.4417V68.005Z" fill="#F0BF35" stroke="#F0BF35" stroke-width="0.5"/>
</svg>
