<svg width="64" height="65" viewBox="0 0 64 65" fill="none" xmlns="http://www.w3.org/2000/svg">
<path d="M10.9932 37.441C9.9833 36.4311 8.43417 36.4311 7.42419 37.441L0.757429 44.1078C-0.252476 45.1177 -0.252476 46.6668 0.757429 47.6768C1.76733 48.6867 3.31646 48.6867 4.32644 47.6768L10.9932 41.01C12.0036 40.0001 12.0036 38.3838 10.9932 37.441Z" fill="#341907"/>
<path d="M16.9194 47.1378C15.9094 46.1279 14.3603 46.1279 13.3503 47.1378L6.68358 53.8046C5.67367 54.8145 5.67367 56.3636 6.68358 57.3736C7.69348 58.3835 9.24261 58.3835 10.2526 57.3736L16.9194 50.7068C17.9293 49.6969 17.9293 48.0806 16.9194 47.1378Z" fill="#341907"/>
<path d="M23.1146 53.0639L16.4479 59.7307C15.438 60.7406 15.438 62.2897 16.4479 63.2997C17.4578 64.3096 19.0069 64.3096 20.0169 63.2997L26.6836 56.6329C27.6935 55.623 27.6935 54.0739 26.6836 53.0639C25.6737 52.0536 24.0574 52.0536 23.1146 53.0639Z" fill="#341907"/>
<path d="M63.3164 0.740762C62.8448 0.269155 62.2388 0 61.5657 0H52.1383C50.7239 0 49.6469 1.14472 49.6469 2.49145C49.6469 3.90583 50.7916 4.98291 52.1383 4.98291H55.5053L44.5288 16.0271C43.5189 17.037 43.5189 18.5862 44.5288 19.5961C45.5387 20.606 47.0878 20.606 48.0978 19.5961L59.0067 8.61962V11.9866C59.0067 13.401 60.1514 14.4781 61.4982 14.4781C62.9126 14.4781 63.9896 13.3333 63.9896 11.9866V2.55927C64.0573 1.81851 63.7881 1.21212 63.3165 0.740979L63.3164 0.740762Z" fill="#F0BF35"/>
<path d="M20.6895 22.8287C15.033 28.4852 15.033 37.7108 20.6895 43.3674C26.3459 49.0239 35.5716 49.0238 41.2281 43.3674C46.8845 37.711 46.8845 28.4853 41.2281 22.8287C35.5717 17.1723 26.346 17.1723 20.6895 22.8287ZM37.6591 39.7984C33.9553 43.5022 27.8949 43.5022 24.1911 39.7984C20.4873 36.0946 20.4873 30.0342 24.1911 26.3304C27.8949 22.6266 33.9553 22.6266 37.6591 26.3304C41.3629 30.1013 41.3629 36.0946 37.6591 39.7984Z" fill="#341907"/>
</svg>
