<svg width="60" height="69" viewBox="0 0 60 69" fill="none" xmlns="http://www.w3.org/2000/svg">
<path d="M24.2624 21.3853C24.798 21.0346 25.4882 21.0504 26.0043 21.4276C26.0025 21.4578 26.0014 21.4892 26.0014 21.5218C26.0014 23.6555 27.733 25.3869 29.8665 25.3869C32 25.3869 33.7316 23.6553 33.7316 21.5218C33.7316 19.3882 32 17.6567 29.8665 17.6567C28.4119 17.6567 27.1494 18.4665 26.492 19.6514C25.6284 19.2542 24.6349 19.2442 23.763 19.6242C23.4491 19.066 23 18.5931 22.456 18.2505L22.4559 18.2504C21.8406 17.8633 21.1282 17.6573 20.4012 17.6573C18.2675 17.6573 16.5361 19.3889 16.5361 21.5224C16.5361 23.6561 18.2677 25.3875 20.4012 25.3875C22.5347 25.3875 24.2663 23.6559 24.2663 21.5224C24.2663 21.4748 24.2647 21.429 24.2624 21.3853ZM29.8722 19.4529C31.0102 19.4529 31.9417 20.3839 31.9417 21.5224C31.9417 22.6603 31.0107 23.5918 29.8722 23.5918C28.7343 23.5918 27.8028 22.6608 27.8028 21.5224C27.8028 20.384 28.7279 19.4529 29.8722 19.4529ZM20.4076 23.5848C19.2697 23.5848 18.3382 22.6538 18.3382 21.5154C18.3382 20.377 19.2633 19.446 20.4076 19.446C21.552 19.446 22.4771 20.3765 22.4771 21.5154C22.4771 22.6534 21.5461 23.5848 20.4076 23.5848Z" fill="#341907" stroke="#341907" stroke-width="0.5"/>
<mask id="path-2-outside-1_436_139" maskUnits="userSpaceOnUse" x="0" y="0" width="60" height="69" fill="black">
<rect fill="white" width="60" height="69"/>
<path d="M57.0425 45.8746H45.3364C42.0065 41.0807 36.895 37.738 30.8836 36.4227V33.6047C34.6862 31.5965 37.1676 27.5862 37.1676 22.7473V15.9775H37.1613C37.1613 15.9647 37.1676 15.9514 37.1676 15.9323V11.4236C37.1092 9.08508 36.2283 6.95355 34.6284 5.26299H34.6279C34.5104 5.13805 34.3479 5.06518 34.1767 5.05996C34.0055 5.05534 33.8389 5.11896 33.7145 5.23696C33.5075 5.4313 33.4681 5.72919 33.5786 5.96923C33.5786 6.02129 33.5722 6.07913 33.585 6.13119C33.6498 6.3776 33.611 6.63673 33.4878 6.85017C33.449 6.92131 33.3906 6.96701 33.3322 7.02485C31.5571 3.39066 27.2166 1 22.2093 1C19.7736 1 17.4542 1.55066 15.4916 2.59994C15.3881 2.652 15.3169 2.73587 15.2585 2.82668C15.1741 2.8851 15.0965 2.9626 15.0445 3.06614C14.8889 3.39005 15.0248 3.77875 15.3424 3.93435V3.93492C15.8161 4.16514 16.2117 4.53011 16.479 4.98416C16.7468 5.43822 16.874 5.96111 16.8451 6.48682C16.8 6.45443 16.7543 6.41568 16.7092 6.38965C16.1909 6.0854 15.5882 6.00096 15.0051 6.15655C14.9664 6.16928 14.9404 6.18894 14.908 6.20861H14.9016C14.8241 6.24736 14.7593 6.29306 14.7073 6.3509C14.7073 6.3509 14.7009 6.35726 14.6945 6.35726C14.6882 6.36362 14.6882 6.36999 14.6882 6.36999C14.6431 6.42204 14.6107 6.47989 14.5846 6.54467L14.5841 6.54525C14.5546 6.61061 14.5389 6.68118 14.5389 6.75289C14.5389 6.79801 14.5389 6.8437 14.5453 6.89518V6.94724C14.5517 6.95997 14.558 6.96691 14.565 6.97963C14.5846 7.03805 14.6101 7.09647 14.6494 7.14795C14.6558 7.16067 14.6691 7.17398 14.6754 7.1867C14.6951 7.21273 14.7078 7.24512 14.7339 7.26421C15.1226 7.62687 15.1486 8.24232 14.7859 8.63101C14.7732 8.64374 14.7663 8.6634 14.7599 8.67613L14.7211 8.71488C13.743 10.2245 13.1339 12.168 13.1339 13.8067V17.0458H13.1143V22.734C13.1143 27.5667 15.5957 31.5768 19.3982 33.5914V36.4094C8.37248 38.826 1 47.7267 1 58.7272V68.315H57.0565C58.1254 68.315 59 67.4404 59 66.3715L58.9994 47.8178C58.9867 46.7425 58.1185 45.8743 57.0432 45.8743L57.0425 45.8746ZM43.7424 45.8746H28.473L33.4162 38.483C37.5883 39.9342 41.1576 42.4798 43.7426 45.8746H43.7424ZM25.1369 42.7389C28.0394 42.7389 30.449 40.5751 30.8314 37.7311C31.2721 37.8346 31.6996 37.9451 32.127 38.0677L24.865 48.9454L17.972 38.1204C18.4515 37.9781 18.9374 37.8486 19.436 37.7317C19.7986 40.5497 22.2215 42.7396 25.1368 42.7396L25.1369 42.7389ZM15.7954 9.43405C15.8018 9.43405 15.8018 9.42769 15.7954 9.43405C16.2038 8.94182 16.3721 8.33275 16.3073 7.73697C16.3918 7.84051 16.4566 7.95735 16.489 8.08691H16.4884C16.5786 8.43338 16.932 8.64219 17.2791 8.55311C17.5058 8.49469 17.6614 8.31364 17.7262 8.106C17.7325 8.09327 17.7389 8.08633 17.7459 8.07997C18.536 6.45411 18.1085 4.54929 16.8262 3.39593C18.4331 2.68333 20.2723 2.301 22.2031 2.301C27.0294 2.301 31.143 4.70425 32.4514 8.27373L32.4509 8.27488C32.5093 8.43626 32.629 8.56815 32.7846 8.64103C32.9402 8.71391 33.1183 8.72201 33.2803 8.66358C33.4035 8.61847 33.5007 8.52766 33.5718 8.43049C33.9993 8.24251 34.3556 7.93189 34.5956 7.52353C34.6153 7.48478 34.628 7.44602 34.6477 7.40669C35.4054 8.60518 35.8265 9.9783 35.8658 11.4429V14.0539C33.9287 11.9745 29.9059 10.5753 25.1316 10.5753C20.3702 10.5753 16.3536 11.9682 14.4165 14.0348V13.8208C14.4229 12.4407 14.9608 10.724 15.7966 9.43527L15.7954 9.43405ZM14.4026 22.7468V18.4065C14.409 18.3741 14.4223 18.3417 14.4223 18.3093V17.0848C14.4483 17.0136 14.4674 16.9425 14.4674 16.8644C14.4674 14.1563 19.3521 11.8635 25.1439 11.8635C30.9291 11.8635 35.8134 14.1505 35.8134 16.8644C35.8134 16.9616 35.8394 17.0524 35.8718 17.1299V22.74C35.8718 28.9852 31.2596 33.6946 25.1376 33.6946C19.0156 33.6946 14.4034 28.9914 14.4034 22.7462L14.4026 22.7468ZM25.1368 34.997C26.7304 34.997 28.2203 34.7055 29.5872 34.1809V36.9925C29.5872 39.4479 27.5916 41.4429 25.1368 41.4429C22.6815 41.4429 20.6865 39.4473 20.6865 36.9405V34.1809C22.0533 34.6991 23.5433 34.997 25.1368 34.997ZM2.28896 58.7333C2.28896 49.3786 7.95103 41.6308 16.7031 38.5271L24.3087 50.4795C24.4255 50.6675 24.6262 50.7774 24.8466 50.7774H24.8529C25.067 50.7774 25.274 50.6675 25.3909 50.4923L26.4471 48.9178V63.8378L17.3313 63.8383C16.975 63.8383 16.6835 64.1299 16.6835 64.4862V67.0323H2.28902L2.28896 58.7333ZM17.9789 65.1272H26.4458V66.3777C26.4458 66.6045 26.4909 66.8248 26.5627 67.0256H17.9789L17.9789 65.1272ZM57.691 66.3777C57.691 66.734 57.3995 67.0256 57.0432 67.0256H28.3908C28.0345 67.0256 27.7429 66.734 27.7429 66.3777V47.8181C27.7429 47.4618 28.0345 47.1703 28.3908 47.1703H57.0506C57.4069 47.1703 57.6984 47.4618 57.6984 47.8181V66.3777H57.691Z"/>
</mask>
<path d="M57.0425 45.8746H45.3364C42.0065 41.0807 36.895 37.738 30.8836 36.4227V33.6047C34.6862 31.5965 37.1676 27.5862 37.1676 22.7473V15.9775H37.1613C37.1613 15.9647 37.1676 15.9514 37.1676 15.9323V11.4236C37.1092 9.08508 36.2283 6.95355 34.6284 5.26299H34.6279C34.5104 5.13805 34.3479 5.06518 34.1767 5.05996C34.0055 5.05534 33.8389 5.11896 33.7145 5.23696C33.5075 5.4313 33.4681 5.72919 33.5786 5.96923C33.5786 6.02129 33.5722 6.07913 33.585 6.13119C33.6498 6.3776 33.611 6.63673 33.4878 6.85017C33.449 6.92131 33.3906 6.96701 33.3322 7.02485C31.5571 3.39066 27.2166 1 22.2093 1C19.7736 1 17.4542 1.55066 15.4916 2.59994C15.3881 2.652 15.3169 2.73587 15.2585 2.82668C15.1741 2.8851 15.0965 2.9626 15.0445 3.06614C14.8889 3.39005 15.0248 3.77875 15.3424 3.93435V3.93492C15.8161 4.16514 16.2117 4.53011 16.479 4.98416C16.7468 5.43822 16.874 5.96111 16.8451 6.48682C16.8 6.45443 16.7543 6.41568 16.7092 6.38965C16.1909 6.0854 15.5882 6.00096 15.0051 6.15655C14.9664 6.16928 14.9404 6.18894 14.908 6.20861H14.9016C14.8241 6.24736 14.7593 6.29306 14.7073 6.3509C14.7073 6.3509 14.7009 6.35726 14.6945 6.35726C14.6882 6.36362 14.6882 6.36999 14.6882 6.36999C14.6431 6.42204 14.6107 6.47989 14.5846 6.54467L14.5841 6.54525C14.5546 6.61061 14.5389 6.68118 14.5389 6.75289C14.5389 6.79801 14.5389 6.8437 14.5453 6.89518V6.94724C14.5517 6.95997 14.558 6.96691 14.565 6.97963C14.5846 7.03805 14.6101 7.09647 14.6494 7.14795C14.6558 7.16067 14.6691 7.17398 14.6754 7.1867C14.6951 7.21273 14.7078 7.24512 14.7339 7.26421C15.1226 7.62687 15.1486 8.24232 14.7859 8.63101C14.7732 8.64374 14.7663 8.6634 14.7599 8.67613L14.7211 8.71488C13.743 10.2245 13.1339 12.168 13.1339 13.8067V17.0458H13.1143V22.734C13.1143 27.5667 15.5957 31.5768 19.3982 33.5914V36.4094C8.37248 38.826 1 47.7267 1 58.7272V68.315H57.0565C58.1254 68.315 59 67.4404 59 66.3715L58.9994 47.8178C58.9867 46.7425 58.1185 45.8743 57.0432 45.8743L57.0425 45.8746ZM43.7424 45.8746H28.473L33.4162 38.483C37.5883 39.9342 41.1576 42.4798 43.7426 45.8746H43.7424ZM25.1369 42.7389C28.0394 42.7389 30.449 40.5751 30.8314 37.7311C31.2721 37.8346 31.6996 37.9451 32.127 38.0677L24.865 48.9454L17.972 38.1204C18.4515 37.9781 18.9374 37.8486 19.436 37.7317C19.7986 40.5497 22.2215 42.7396 25.1368 42.7396L25.1369 42.7389ZM15.7954 9.43405C15.8018 9.43405 15.8018 9.42769 15.7954 9.43405C16.2038 8.94182 16.3721 8.33275 16.3073 7.73697C16.3918 7.84051 16.4566 7.95735 16.489 8.08691H16.4884C16.5786 8.43338 16.932 8.64219 17.2791 8.55311C17.5058 8.49469 17.6614 8.31364 17.7262 8.106C17.7325 8.09327 17.7389 8.08633 17.7459 8.07997C18.536 6.45411 18.1085 4.54929 16.8262 3.39593C18.4331 2.68333 20.2723 2.301 22.2031 2.301C27.0294 2.301 31.143 4.70425 32.4514 8.27373L32.4509 8.27488C32.5093 8.43626 32.629 8.56815 32.7846 8.64103C32.9402 8.71391 33.1183 8.72201 33.2803 8.66358C33.4035 8.61847 33.5007 8.52766 33.5718 8.43049C33.9993 8.24251 34.3556 7.93189 34.5956 7.52353C34.6153 7.48478 34.628 7.44602 34.6477 7.40669C35.4054 8.60518 35.8265 9.9783 35.8658 11.4429V14.0539C33.9287 11.9745 29.9059 10.5753 25.1316 10.5753C20.3702 10.5753 16.3536 11.9682 14.4165 14.0348V13.8208C14.4229 12.4407 14.9608 10.724 15.7966 9.43527L15.7954 9.43405ZM14.4026 22.7468V18.4065C14.409 18.3741 14.4223 18.3417 14.4223 18.3093V17.0848C14.4483 17.0136 14.4674 16.9425 14.4674 16.8644C14.4674 14.1563 19.3521 11.8635 25.1439 11.8635C30.9291 11.8635 35.8134 14.1505 35.8134 16.8644C35.8134 16.9616 35.8394 17.0524 35.8718 17.1299V22.74C35.8718 28.9852 31.2596 33.6946 25.1376 33.6946C19.0156 33.6946 14.4034 28.9914 14.4034 22.7462L14.4026 22.7468ZM25.1368 34.997C26.7304 34.997 28.2203 34.7055 29.5872 34.1809V36.9925C29.5872 39.4479 27.5916 41.4429 25.1368 41.4429C22.6815 41.4429 20.6865 39.4473 20.6865 36.9405V34.1809C22.0533 34.6991 23.5433 34.997 25.1368 34.997ZM2.28896 58.7333C2.28896 49.3786 7.95103 41.6308 16.7031 38.5271L24.3087 50.4795C24.4255 50.6675 24.6262 50.7774 24.8466 50.7774H24.8529C25.067 50.7774 25.274 50.6675 25.3909 50.4923L26.4471 48.9178V63.8378L17.3313 63.8383C16.975 63.8383 16.6835 64.1299 16.6835 64.4862V67.0323H2.28902L2.28896 58.7333ZM17.9789 65.1272H26.4458V66.3777C26.4458 66.6045 26.4909 66.8248 26.5627 67.0256H17.9789L17.9789 65.1272ZM57.691 66.3777C57.691 66.734 57.3995 67.0256 57.0432 67.0256H28.3908C28.0345 67.0256 27.7429 66.734 27.7429 66.3777V47.8181C27.7429 47.4618 28.0345 47.1703 28.3908 47.1703H57.0506C57.4069 47.1703 57.6984 47.4618 57.6984 47.8181V66.3777H57.691Z" fill="#341907"/>
<path d="M57.0425 45.8746H45.3364C42.0065 41.0807 36.895 37.738 30.8836 36.4227V33.6047C34.6862 31.5965 37.1676 27.5862 37.1676 22.7473V15.9775H37.1613C37.1613 15.9647 37.1676 15.9514 37.1676 15.9323V11.4236C37.1092 9.08508 36.2283 6.95355 34.6284 5.26299H34.6279C34.5104 5.13805 34.3479 5.06518 34.1767 5.05996C34.0055 5.05534 33.8389 5.11896 33.7145 5.23696C33.5075 5.4313 33.4681 5.72919 33.5786 5.96923C33.5786 6.02129 33.5722 6.07913 33.585 6.13119C33.6498 6.3776 33.611 6.63673 33.4878 6.85017C33.449 6.92131 33.3906 6.96701 33.3322 7.02485C31.5571 3.39066 27.2166 1 22.2093 1C19.7736 1 17.4542 1.55066 15.4916 2.59994C15.3881 2.652 15.3169 2.73587 15.2585 2.82668C15.1741 2.8851 15.0965 2.9626 15.0445 3.06614C14.8889 3.39005 15.0248 3.77875 15.3424 3.93435V3.93492C15.8161 4.16514 16.2117 4.53011 16.479 4.98416C16.7468 5.43822 16.874 5.96111 16.8451 6.48682C16.8 6.45443 16.7543 6.41568 16.7092 6.38965C16.1909 6.0854 15.5882 6.00096 15.0051 6.15655C14.9664 6.16928 14.9404 6.18894 14.908 6.20861H14.9016C14.8241 6.24736 14.7593 6.29306 14.7073 6.3509C14.7073 6.3509 14.7009 6.35726 14.6945 6.35726C14.6882 6.36362 14.6882 6.36999 14.6882 6.36999C14.6431 6.42204 14.6107 6.47989 14.5846 6.54467L14.5841 6.54525C14.5546 6.61061 14.5389 6.68118 14.5389 6.75289C14.5389 6.79801 14.5389 6.8437 14.5453 6.89518V6.94724C14.5517 6.95997 14.558 6.96691 14.565 6.97963C14.5846 7.03805 14.6101 7.09647 14.6494 7.14795C14.6558 7.16067 14.6691 7.17398 14.6754 7.1867C14.6951 7.21273 14.7078 7.24512 14.7339 7.26421C15.1226 7.62687 15.1486 8.24232 14.7859 8.63101C14.7732 8.64374 14.7663 8.6634 14.7599 8.67613L14.7211 8.71488C13.743 10.2245 13.1339 12.168 13.1339 13.8067V17.0458H13.1143V22.734C13.1143 27.5667 15.5957 31.5768 19.3982 33.5914V36.4094C8.37248 38.826 1 47.7267 1 58.7272V68.315H57.0565C58.1254 68.315 59 67.4404 59 66.3715L58.9994 47.8178C58.9867 46.7425 58.1185 45.8743 57.0432 45.8743L57.0425 45.8746ZM43.7424 45.8746H28.473L33.4162 38.483C37.5883 39.9342 41.1576 42.4798 43.7426 45.8746H43.7424ZM25.1369 42.7389C28.0394 42.7389 30.449 40.5751 30.8314 37.7311C31.2721 37.8346 31.6996 37.9451 32.127 38.0677L24.865 48.9454L17.972 38.1204C18.4515 37.9781 18.9374 37.8486 19.436 37.7317C19.7986 40.5497 22.2215 42.7396 25.1368 42.7396L25.1369 42.7389ZM15.7954 9.43405C15.8018 9.43405 15.8018 9.42769 15.7954 9.43405C16.2038 8.94182 16.3721 8.33275 16.3073 7.73697C16.3918 7.84051 16.4566 7.95735 16.489 8.08691H16.4884C16.5786 8.43338 16.932 8.64219 17.2791 8.55311C17.5058 8.49469 17.6614 8.31364 17.7262 8.106C17.7325 8.09327 17.7389 8.08633 17.7459 8.07997C18.536 6.45411 18.1085 4.54929 16.8262 3.39593C18.4331 2.68333 20.2723 2.301 22.2031 2.301C27.0294 2.301 31.143 4.70425 32.4514 8.27373L32.4509 8.27488C32.5093 8.43626 32.629 8.56815 32.7846 8.64103C32.9402 8.71391 33.1183 8.72201 33.2803 8.66358C33.4035 8.61847 33.5007 8.52766 33.5718 8.43049C33.9993 8.24251 34.3556 7.93189 34.5956 7.52353C34.6153 7.48478 34.628 7.44602 34.6477 7.40669C35.4054 8.60518 35.8265 9.9783 35.8658 11.4429V14.0539C33.9287 11.9745 29.9059 10.5753 25.1316 10.5753C20.3702 10.5753 16.3536 11.9682 14.4165 14.0348V13.8208C14.4229 12.4407 14.9608 10.724 15.7966 9.43527L15.7954 9.43405ZM14.4026 22.7468V18.4065C14.409 18.3741 14.4223 18.3417 14.4223 18.3093V17.0848C14.4483 17.0136 14.4674 16.9425 14.4674 16.8644C14.4674 14.1563 19.3521 11.8635 25.1439 11.8635C30.9291 11.8635 35.8134 14.1505 35.8134 16.8644C35.8134 16.9616 35.8394 17.0524 35.8718 17.1299V22.74C35.8718 28.9852 31.2596 33.6946 25.1376 33.6946C19.0156 33.6946 14.4034 28.9914 14.4034 22.7462L14.4026 22.7468ZM25.1368 34.997C26.7304 34.997 28.2203 34.7055 29.5872 34.1809V36.9925C29.5872 39.4479 27.5916 41.4429 25.1368 41.4429C22.6815 41.4429 20.6865 39.4473 20.6865 36.9405V34.1809C22.0533 34.6991 23.5433 34.997 25.1368 34.997ZM2.28896 58.7333C2.28896 49.3786 7.95103 41.6308 16.7031 38.5271L24.3087 50.4795C24.4255 50.6675 24.6262 50.7774 24.8466 50.7774H24.8529C25.067 50.7774 25.274 50.6675 25.3909 50.4923L26.4471 48.9178V63.8378L17.3313 63.8383C16.975 63.8383 16.6835 64.1299 16.6835 64.4862V67.0323H2.28902L2.28896 58.7333ZM17.9789 65.1272H26.4458V66.3777C26.4458 66.6045 26.4909 66.8248 26.5627 67.0256H17.9789L17.9789 65.1272ZM57.691 66.3777C57.691 66.734 57.3995 67.0256 57.0432 67.0256H28.3908C28.0345 67.0256 27.7429 66.734 27.7429 66.3777V47.8181C27.7429 47.4618 28.0345 47.1703 28.3908 47.1703H57.0506C57.4069 47.1703 57.6984 47.4618 57.6984 47.8181V66.3777H57.691Z" stroke="black" mask="url(#path-2-outside-1_436_139)"/>
<path d="M38.5595 53.7994C38.169 53.4089 37.5358 53.4089 37.1453 53.7994L34.3321 56.6127C33.9416 57.0032 33.9415 57.6363 34.332 58.0268L37.1453 60.8406C37.5358 61.2312 38.169 61.2312 38.5596 60.8406L39.0116 60.3886C39.4021 59.9981 39.4022 59.365 39.0117 58.9745L38.0643 58.0268C37.6739 57.6363 37.6739 57.0032 38.0644 56.6127L39.0115 55.6656C39.402 55.2751 39.402 54.6419 39.0115 54.2514L38.5595 53.7994Z" fill="#F0BF35"/>
<path d="M50.3962 53.7994C50.0057 53.4089 49.3725 53.4089 48.982 53.7994L48.5299 54.2515C48.1394 54.642 48.1394 55.2751 48.5298 55.6656L49.4767 56.6128C49.8671 57.0033 49.8671 57.6362 49.4768 58.0267L48.5296 58.9745C48.1393 59.365 48.1393 59.9981 48.5298 60.3885L48.9819 60.8406C49.3725 61.2312 50.0057 61.2312 50.3962 60.8406L53.2095 58.0268C53.6 57.6363 53.6 57.0032 53.2095 56.6127L50.3962 53.7994Z" fill="#F0BF35"/>
<path d="M42.7727 63.7689C42.5795 64.2863 42.0035 64.5491 41.4861 64.356L40.8877 64.1327C40.3703 63.9395 40.1074 63.3635 40.3006 62.846L44.77 50.8743C44.9632 50.3569 45.5392 50.094 46.0566 50.2872L46.655 50.5105C47.1724 50.7037 47.4353 51.2797 47.2421 51.7971L42.7727 63.7689Z" fill="#F0BF35"/>
</svg>
