<svg width="76" height="68" viewBox="0 0 76 68" fill="none" xmlns="http://www.w3.org/2000/svg">
<g opacity="0.1">
<path d="M68.0013 68C70.0052 68 71.927 67.204 73.3439 65.787C74.7608 64.3701 75.5569 62.4483 75.5569 60.4444V41.9938C75.5569 39.9899 74.7608 38.0681 73.3439 36.6512C71.927 35.2342 70.0052 34.4382 68.0013 34.4382H57.5142C57.5142 31.7862 57.6729 29.1267 57.9826 26.4747C58.4511 23.664 59.2369 21.1631 60.3249 18.9796C61.4204 16.7884 62.8258 15.0733 64.5484 13.8191C66.2635 12.4138 68.4471 11.7111 71.1067 11.7111V0C66.732 0 62.9089 0.936889 59.6222 2.81067C56.3641 4.66545 53.563 7.22652 51.4244 10.3058C49.2781 13.7006 47.6961 17.4208 46.74 21.3218C45.7765 25.6266 45.3051 30.027 45.3346 34.4382V60.4444C45.3346 62.4483 46.1307 64.3701 47.5476 65.787C48.9646 67.204 50.8863 68 52.8902 68H68.0013ZM22.668 68C24.6718 68 26.5936 67.204 28.0106 65.787C29.4275 64.3701 30.2235 62.4483 30.2235 60.4444V41.9938C30.2235 39.9899 29.4275 38.0681 28.0106 36.6512C26.5936 35.2342 24.6718 34.4382 22.668 34.4382H12.1809C12.1809 31.7862 12.3395 29.1267 12.6493 26.4747C13.1178 23.664 13.9035 21.1631 14.9915 18.9796C16.0871 16.7884 17.4924 15.0733 19.2151 13.8191C20.9302 12.4138 23.1138 11.7111 25.7733 11.7111V0C21.3986 0 17.5755 0.936889 14.2889 2.81067C11.0308 4.66545 8.22963 7.22652 6.09109 10.3058C3.94474 13.7006 2.36276 17.4208 1.40664 21.3218C0.443204 25.6266 -0.0282621 30.027 0.00130921 34.4382V60.4444C0.00130921 62.4483 0.797338 64.3701 2.21428 65.787C3.63122 67.204 5.55301 68 7.55687 68H22.668Z" fill="#482F1F"/>
</g>
</svg>
