<svg width="32" height="32" viewBox="0 0 32 32" fill="none" xmlns="http://www.w3.org/2000/svg">
<circle opacity="0.1" cx="16" cy="16" r="16" fill="white"/>
<path d="M12.0002 8H19.9998C21.0607 8 22.0782 8.42145 22.8284 9.17163C23.5786 9.92181 24 10.9393 24 12.0002V19.9998C24 21.0607 23.5786 22.0782 22.8284 22.8284C22.0782 23.5786 21.0607 24 19.9998 24H12.0002C10.9393 24 9.92181 23.5786 9.17163 22.8284C8.42145 22.0782 8 21.0607 8 19.9998V12.0002C8 10.9393 8.42145 9.92181 9.17163 9.17163C9.92181 8.42145 10.9393 8 12.0002 8V8Z" stroke="#F6F6F6" stroke-width="0.70979" stroke-linecap="round" stroke-linejoin="round"/>
<path d="M19.2005 15.4963C19.2991 16.162 19.1853 16.8418 18.8753 17.439C18.5653 18.0363 18.0748 18.5206 17.4737 18.8231C16.8726 19.1256 16.1914 19.2309 15.527 19.1239C14.8626 19.017 14.2489 18.7033 13.7731 18.2275C13.2972 17.7516 12.9835 17.1379 12.8766 16.4735C12.7697 15.8091 12.8749 15.1279 13.1774 14.5268C13.4799 13.9257 13.9642 13.4353 14.5615 13.1253C15.1588 12.8152 15.8386 12.7014 16.5042 12.8C17.1835 12.9006 17.8124 13.2171 18.2979 13.7026C18.7834 14.1882 19.0999 14.817 19.2005 15.4963V15.4963Z" stroke="white" stroke-width="0.70979" stroke-linecap="round" stroke-linejoin="round"/>
</svg>
