<svg width="1001" height="6" viewBox="0 0 1001 6" fill="none" xmlns="http://www.w3.org/2000/svg">
<path d="M0 3L5 5.88675V0.113249L0 3ZM1001 3L996 0.113249V5.88675L1001 3ZM9.04518 3.5H15.0753V2.5H9.04518V3.5ZM21.1054 3.5H27.1355V2.5H21.1054V3.5ZM33.1657 3.5H39.1958V2.5H33.1657V3.5ZM45.2259 3.5H51.256V2.5H45.2259V3.5ZM57.2861 3.5H63.3163V2.5H57.2861V3.5ZM69.3464 3.5H75.3765V2.5H69.3464V3.5ZM81.4066 3.5H87.4367V2.5H81.4066V3.5ZM93.4669 3.5H99.497V2.5H93.4669V3.5ZM105.527 3.5H111.557V2.5H105.527V3.5ZM117.587 3.5H123.617V2.5H117.587V3.5ZM129.648 3.5H135.678V2.5H129.648V3.5ZM141.708 3.5H147.738V2.5H141.708V3.5ZM153.768 3.5H159.798V2.5H153.768V3.5ZM165.828 3.5H171.858V2.5H165.828V3.5ZM177.889 3.5H183.919V2.5H177.889V3.5ZM189.949 3.5H195.979V2.5H189.949V3.5ZM202.009 3.5H208.039V2.5H202.009V3.5ZM214.069 3.5H220.099V2.5H214.069V3.5ZM226.13 3.5H232.16V2.5H226.13V3.5ZM238.19 3.5H244.22V2.5H238.19V3.5ZM250.25 3.5H256.28V2.5H250.25V3.5ZM262.31 3.5H268.34V2.5H262.31V3.5ZM274.37 3.5H280.401V2.5H274.37V3.5ZM286.431 3.5H292.461V2.5H286.431V3.5ZM298.491 3.5H304.521V2.5H298.491V3.5ZM310.551 3.5H316.581V2.5H310.551V3.5ZM322.611 3.5H328.642V2.5H322.611V3.5ZM334.672 3.5H340.702V2.5H334.672V3.5ZM346.732 3.5H352.762V2.5H346.732V3.5ZM358.792 3.5H364.822V2.5H358.792V3.5ZM370.852 3.5H376.883V2.5H370.852V3.5ZM382.913 3.5H388.943V2.5H382.913V3.5ZM394.973 3.5H401.003V2.5H394.973V3.5ZM407.033 3.5H413.063V2.5H407.033V3.5ZM419.093 3.5H425.124V2.5H419.093V3.5ZM431.154 3.5H437.184V2.5H431.154V3.5ZM443.214 3.5H449.244V2.5H443.214V3.5ZM455.274 3.5H461.304V2.5H455.274V3.5ZM467.334 3.5H473.364V2.5H467.334V3.5ZM479.395 3.5H485.425V2.5H479.395V3.5ZM491.455 3.5H497.485V2.5H491.455V3.5ZM503.515 3.5H509.545V2.5H503.515V3.5ZM515.575 3.5H521.605V2.5H515.575V3.5ZM527.635 3.5H533.666V2.5H527.635V3.5ZM539.696 3.5H545.726V2.5H539.696V3.5ZM551.756 3.5H557.786V2.5H551.756V3.5ZM563.816 3.5H569.846V2.5H563.816V3.5ZM575.876 3.5H581.906V2.5H575.876V3.5ZM587.936 3.5H593.966V2.5H587.936V3.5ZM599.997 3.5H606.027V2.5H599.997V3.5ZM612.057 3.5H618.087V2.5H612.057V3.5ZM624.117 3.5H630.147V2.5H624.117V3.5ZM636.177 3.5H642.207V2.5H636.177V3.5ZM648.237 3.5H654.267V2.5H648.237V3.5ZM660.297 3.5H666.328V2.5H660.297V3.5ZM672.358 3.5H678.388V2.5H672.358V3.5ZM684.418 3.5H690.448V2.5H684.418V3.5ZM696.478 3.5H702.508V2.5H696.478V3.5ZM708.538 3.5H714.568V2.5H708.538V3.5ZM720.598 3.5H726.628V2.5H720.598V3.5ZM732.659 3.5H738.689V2.5H732.659V3.5ZM744.719 3.5H750.749V2.5H744.719V3.5ZM756.779 3.5H762.809V2.5H756.779V3.5ZM768.839 3.5H774.869V2.5H768.839V3.5ZM780.899 3.5H786.929V2.5H780.899V3.5ZM792.959 3.5H798.99V2.5H792.959V3.5ZM805.02 3.5H811.05V2.5H805.02V3.5ZM817.08 3.5H823.11V2.5H817.08V3.5ZM829.14 3.5H835.17V2.5H829.14V3.5ZM841.2 3.5H847.23V2.5H841.2V3.5ZM853.26 3.5H859.29V2.5H853.26V3.5ZM865.321 3.5H871.351V2.5H865.321V3.5ZM877.381 3.5H883.411V2.5H877.381V3.5ZM889.441 3.5H895.471V2.5H889.441V3.5ZM901.501 3.5H907.531V2.5H901.501V3.5ZM913.561 3.5H919.591V2.5H913.561V3.5ZM925.621 3.5H931.651V2.5H925.621V3.5ZM937.682 3.5H943.712V2.5H937.682V3.5ZM949.742 3.5H955.772V2.5H949.742V3.5ZM961.802 3.5H967.832V2.5H961.802V3.5ZM973.862 3.5H979.892V2.5H973.862V3.5ZM985.922 3.5H991.952V2.5H985.922V3.5Z" fill="#F0BF35"/>
</svg>
