<svg width="32" height="32" viewBox="0 0 32 32" fill="none" xmlns="http://www.w3.org/2000/svg">
<circle opacity="0.1" cx="16" cy="16" r="16" fill="white"/>
<path d="M11.5982 23.9785H8.2824V13.3102H11.5982V23.9785ZM9.93713 11.8552C9.55589 11.8571 9.18266 11.7459 8.86462 11.5356C8.54659 11.3254 8.29804 11.0256 8.1504 10.6741C8.00277 10.3226 7.96268 9.93519 8.0352 9.56091C8.10773 9.18663 8.28961 8.84226 8.55785 8.57135C8.82609 8.30044 9.16864 8.11515 9.54219 8.03893C9.91573 7.9627 10.3035 7.99895 10.6564 8.1431C11.0094 8.28724 11.3116 8.53281 11.525 8.84875C11.7384 9.16468 11.8533 9.5368 11.8552 9.91804C11.8558 10.4287 11.6546 10.9189 11.2953 11.2818C10.936 11.6447 10.4478 11.8508 9.93713 11.8552V11.8552ZM23.9944 23.9785H20.6881V18.7852C20.6881 17.5473 20.6635 15.9602 18.9658 15.9602C17.2434 15.9602 16.9769 17.3047 16.9769 18.6961V23.9785H13.6667V13.3102H16.8488V14.7653H16.895C17.2129 14.2213 17.6725 13.7737 18.2248 13.4704C18.7771 13.1671 19.4014 13.0193 20.031 13.0429C23.3835 13.0429 24 15.2506 24 18.1185V23.9785H23.9944Z" stroke="white" stroke-width="0.5"/>
</svg>
