<svg width="29" height="29" viewBox="0 0 29 29" fill="none" xmlns="http://www.w3.org/2000/svg">
<path d="M26.0711 19.8201C25.3766 19.8205 24.7044 20.0667 24.174 20.5154C23.6436 20.9638 23.2889 21.5856 23.173 22.2707H22.0213C21.5409 22.2775 21.0729 22.1173 20.6977 21.8172C20.4387 21.5493 20.3049 21.1843 20.3301 20.8125V16.1194H21.5067C22.2298 16.1194 24.8642 16.0031 26.6104 14.3244C27.6827 13.262 28.2545 11.7943 28.1849 10.2866C28.2866 8.58177 27.6323 6.91843 26.3959 5.74054C24.6128 4.15969 22.0704 4.12293 21.151 4.16603C20.7762 3.39974 20.2723 2.70314 19.6625 2.10697C18.0415 0.562007 15.8238 -0.193133 13.5968 0.042315C8.69514 0.367128 6.68563 4.33103 6.15871 5.59952C5.0689 5.49267 3.98082 5.81578 3.12601 6.50001C1.61518 7.61631 0.738708 9.39507 0.773281 11.273C0.775418 12.0974 1.00577 12.9047 1.43828 13.6064C1.87078 14.3082 2.48878 14.8766 3.22383 15.2493C4.25295 15.84 5.41923 16.1485 6.6061 16.1438H8.54209V20.9471C8.5438 21.3501 8.40746 21.7416 8.15617 22.0562C7.95316 22.2468 7.68007 22.3442 7.40228 22.3258H5.84615C5.69144 21.3416 5.04909 20.5027 4.13916 20.0966C3.22927 19.6906 2.17581 19.7731 1.34026 20.315C0.504309 20.8574 0 21.786 0 22.7823C0 23.7786 0.504309 24.7072 1.34026 25.2496C2.17578 25.7919 3.22931 25.874 4.13916 25.468C5.04904 25.062 5.69145 24.223 5.84615 23.2388H7.3839C7.90829 23.2589 8.41687 23.0589 8.78696 22.6875C9.20493 22.2015 9.43529 21.5822 9.43657 20.9412V16.1195H13.9706L13.9702 23.0794C12.9816 23.2341 12.1389 23.879 11.7302 24.7927C11.3221 25.7064 11.4046 26.7646 11.949 27.604C12.4935 28.4438 13.4261 28.9502 14.4266 28.9502C15.4275 28.9502 16.3601 28.4438 16.9045 27.604C17.449 26.7646 17.5315 25.7064 17.1229 24.7927C16.7147 23.879 15.8719 23.2341 14.883 23.0794V16.1195H19.4111V20.8434C19.3841 21.4622 19.6175 22.0644 20.0543 22.5038C20.5962 22.9645 21.2851 23.2166 21.9967 23.2145H23.1668C23.2844 23.9568 23.6827 24.6261 24.2793 25.0834C24.8755 25.5411 25.6252 25.7523 26.3726 25.6736C27.1201 25.595 27.8091 25.2321 28.2971 24.6603C28.7856 24.0889 29.0356 23.3517 28.9959 22.6008C28.9566 21.8499 28.6305 21.143 28.0852 20.6259C27.5398 20.1083 26.8167 19.8198 26.0649 19.8202L26.0711 19.8201ZM2.94863 24.7888C2.41056 24.7888 1.89472 24.5751 1.51483 24.1947C1.13446 23.8144 0.920775 23.2985 0.920775 22.7609C0.920775 22.2229 1.13446 21.707 1.51483 21.3271C1.89478 20.9468 2.41062 20.7331 2.94863 20.7331C3.48628 20.7331 4.00212 20.9468 4.38244 21.3271C4.76281 21.7071 4.97649 22.2229 4.97649 22.7609C4.97649 23.2986 4.76281 23.8144 4.38244 24.1947C4.00207 24.5751 3.48623 24.7888 2.94863 24.7888ZM16.5077 25.9714C16.5072 26.5112 16.2923 27.0283 15.9098 27.4091C15.5273 27.7895 15.0089 28.0019 14.4691 27.9993C13.9293 27.9963 13.413 27.7788 13.0348 27.3942C12.6562 27.01 12.4463 26.4903 12.4515 25.9505C12.457 25.4112 12.6776 24.8962 13.0639 24.5192C13.4503 24.1427 13.9708 23.9354 14.5102 23.9436C15.0427 23.9517 15.5508 24.1688 15.9244 24.5483C16.2984 24.9278 16.5077 25.4388 16.5077 25.9714ZM3.66526 14.4649C3.07035 14.17 2.56942 13.7148 2.21899 13.1511C1.86811 12.5874 1.68177 11.9369 1.68006 11.2727C1.64715 9.68587 2.38481 8.18107 3.65927 7.23534C4.24093 6.78701 4.94734 6.53016 5.68114 6.49981C5.88884 6.49896 6.09528 6.52973 6.29358 6.5917C6.40727 6.64085 6.5359 6.64085 6.64916 6.5917C6.75558 6.53187 6.83464 6.43314 6.86968 6.31604C6.86968 6.26689 8.43817 1.34735 13.6522 0.997788C18.8661 0.64862 20.392 4.67414 20.4346 4.8515C20.5051 5.0498 20.7039 5.17246 20.9124 5.14596C20.9124 5.14596 23.9268 4.81517 25.7833 6.46959C26.8223 7.47734 27.3668 8.8907 27.2723 10.3357C27.3355 11.5943 26.8667 12.8218 25.9795 13.7175C24.264 15.3595 21.3903 15.2552 21.3599 15.2552H6.58754C5.56055 15.2557 4.55257 14.9824 3.66526 14.4649ZM26.0711 24.7886C25.5335 24.7886 25.0176 24.5749 24.6373 24.1945C24.2569 23.8141 24.0432 23.2983 24.0432 22.7607C24.0432 22.2226 24.2569 21.7068 24.6373 21.3269C25.0177 20.9465 25.5335 20.7328 26.0711 20.7328C26.6092 20.7328 27.125 20.9465 27.5049 21.3269C27.8853 21.7068 28.099 22.2227 28.099 22.7607C28.0973 23.2979 27.8831 23.8129 27.5032 24.1929C27.1233 24.5728 26.6083 24.7869 26.0711 24.7886Z" fill="#F0BF35"/>
<path d="M15.4476 11.8299C15.4476 11.4504 15.2194 11.1089 14.8689 10.9636C14.5189 10.8187 14.1155 10.8987 13.8475 11.1671C13.5795 11.435 13.4992 11.838 13.6445 12.1885C13.7894 12.5389 14.1313 12.7672 14.5104 12.7672C15.0279 12.7672 15.4476 12.3475 15.4476 11.8299ZM14.5104 11.8299H14.5595C14.5595 11.8299 14.5104 11.8543 14.5104 11.8299Z" fill="#F0BF35"/>
<path d="M16.7211 10.0838C16.8771 10.2817 17.1635 10.3159 17.3614 10.1603C17.5597 10.0048 17.5939 9.71799 17.4383 9.52011C16.7305 8.62134 15.6501 8.09692 14.5065 8.09692C13.3628 8.09692 12.282 8.62132 11.5746 9.52011C11.4366 9.71371 11.4712 9.98082 11.6541 10.1326C11.7336 10.1979 11.8336 10.233 11.9362 10.2308C12.0759 10.2304 12.2072 10.1646 12.2913 10.0531C12.826 9.37396 13.6423 8.97778 14.5064 8.97778C15.3706 8.97778 16.1868 9.37396 16.7211 10.0531L16.7211 10.0838Z" fill="#F0BF35"/>
<path d="M18.4923 7.98864C18.6684 8.12925 18.9206 8.11941 19.0851 7.96556C19.2497 7.81213 19.2766 7.56083 19.1479 7.37578C17.9325 6.11889 16.2589 5.40894 14.51 5.40894C12.7611 5.40894 11.0876 6.11881 9.87205 7.37578C9.69255 7.55528 9.69255 7.8459 9.87205 8.02539C9.9571 8.1036 10.0686 8.1472 10.1845 8.14805C10.3084 8.14933 10.4276 8.10061 10.5152 8.013C11.5555 6.92703 12.994 6.31289 14.4975 6.31289C16.0014 6.31289 17.4401 6.92704 18.4802 8.013L18.4923 7.98864Z" fill="#F0BF35"/>
</svg>
