<svg width="28" height="25" viewBox="0 0 28 25" fill="none" xmlns="http://www.w3.org/2000/svg">
<path fill-rule="evenodd" clip-rule="evenodd" d="M27.9997 2.61014C27.9997 1.91819 27.7245 1.25379 27.2358 0.763979C26.7459 0.275214 26.0815 0 25.3896 0H2.61014C1.91819 0 1.25379 0.275208 0.763979 0.763979C0.275214 1.2538 0 1.91819 0 2.61014V17.7964C0 18.4884 0.275208 19.1528 0.763979 19.6426C1.2538 20.1314 1.91819 20.4066 2.61014 20.4066H25.3896C26.0815 20.4066 26.7459 20.1314 27.2358 19.6426C27.7245 19.1528 27.9997 18.4884 27.9997 17.7964V2.61014ZM26.576 2.61014V17.7964C26.576 18.1115 26.4508 18.4125 26.2286 18.6354C26.0055 18.8575 25.7046 18.9829 25.3896 18.9829H2.61013C2.29509 18.9829 1.99406 18.8577 1.77114 18.6354C1.54911 18.4123 1.42369 18.1115 1.42369 17.7964V2.61014C1.42369 2.2951 1.5489 1.99407 1.77114 1.77116C1.99424 1.54912 2.29508 1.4237 2.61013 1.4237H25.3896C25.7046 1.4237 26.0056 1.54892 26.2286 1.77116C26.4506 1.99425 26.576 2.29509 26.576 2.61014Z" fill="#F0BF35"/>
<path fill-rule="evenodd" clip-rule="evenodd" d="M0.712102 16.1356H27.2881C27.6811 16.1356 28 15.8168 28 15.4238C28 15.0308 27.6811 14.7119 27.2881 14.7119H0.712102C0.319097 14.7119 0.000244141 15.0308 0.000244141 15.4238C0.000244141 15.8168 0.319097 16.1356 0.712102 16.1356Z" fill="#F0BF35"/>
<path fill-rule="evenodd" clip-rule="evenodd" d="M22.3048 19.6948C22.3048 19.3018 21.986 18.9829 21.593 18.9829H6.40668C6.01368 18.9829 5.69482 19.3018 5.69482 19.6948V21.5931C5.69482 23.0348 6.86325 24.2032 8.30497 24.2032H19.6947C21.1364 24.2032 22.3048 23.0348 22.3048 21.5931V19.6948ZM20.8811 20.4066V21.5931C20.8811 22.2479 20.3496 22.7795 19.6947 22.7795H8.30497C7.65011 22.7795 7.11854 22.2479 7.11854 21.5931V20.4066H20.8811Z" fill="#F0BF35"/>
<path fill-rule="evenodd" clip-rule="evenodd" d="M6.64453 7.42415V11.6268C6.64453 12.8056 7.60132 13.7624 8.7801 13.7624C9.95889 13.7624 10.9157 12.8056 10.9157 11.6268V7.42415C10.9157 6.24618 9.95889 5.28857 8.7801 5.28857C7.60132 5.28857 6.64453 6.24618 6.64453 7.42415ZM8.06825 7.42415C8.06825 7.03114 8.3871 6.71229 8.7801 6.71229C9.17311 6.71229 9.49196 7.03114 9.49196 7.42415V11.6268C9.49196 12.0198 9.17311 12.3387 8.7801 12.3387C8.3871 12.3387 8.06825 12.0198 8.06825 11.6268V7.42415Z" fill="#F0BF35"/>
<path fill-rule="evenodd" clip-rule="evenodd" d="M11.8643 4.98298V11.627C11.8643 12.8058 12.821 13.7626 13.9998 13.7626C15.1786 13.7626 16.1354 12.8058 16.1354 11.627V4.98298C16.1354 3.8042 15.1786 2.84741 13.9998 2.84741C12.821 2.84741 11.8643 3.8042 11.8643 4.98298ZM13.288 4.98298C13.288 4.58998 13.6068 4.27113 13.9998 4.27113C14.3928 4.27113 14.7117 4.58998 14.7117 4.98298V11.627C14.7117 12.02 14.3928 12.3388 13.9998 12.3388C13.6068 12.3388 13.288 12.02 13.288 11.627V4.98298Z" fill="#F0BF35"/>
<path fill-rule="evenodd" clip-rule="evenodd" d="M17.0851 9.25422V11.6271C17.0851 12.8059 18.0419 13.7627 19.2207 13.7627C20.3994 13.7627 21.3562 12.8059 21.3562 11.6271V9.25422C21.3562 8.07544 20.3994 7.11865 19.2207 7.11865C18.0419 7.11865 17.0851 8.07544 17.0851 9.25422ZM18.5088 9.25422C18.5088 8.86122 18.8277 8.54237 19.2207 8.54237C19.6137 8.54237 19.9325 8.86122 19.9325 9.25422V11.6271C19.9325 12.0201 19.6137 12.3389 19.2207 12.3389C18.8277 12.3389 18.5088 12.0201 18.5088 11.6271V9.25422Z" fill="#F0BF35"/>
</svg>
