<svg width="28" height="27" viewBox="0 0 28 27" fill="none" xmlns="http://www.w3.org/2000/svg">
<path d="M13.5449 0.0321032C17.0252 -0.257944 19.9467 1.41945 22.2547 4.98126L22.3419 5.11732L22.4264 5.13921C26.048 6.08809 27.9422 8.4744 27.9986 12.1737L28 12.3454L27.9974 12.4021C27.6904 15.7808 25.3628 17.7981 21.2003 18.3929C20.858 18.4418 20.5407 18.204 20.4918 17.8615C20.4429 17.5193 20.6807 17.2019 21.0232 17.153C24.5942 16.6428 26.4397 15.0857 26.7368 12.423L26.7473 12.3194L26.7466 12.1859C26.6962 9.01142 25.1409 7.09715 21.9661 6.31438L21.806 6.27617C21.6427 6.23843 21.5013 6.13686 21.4135 5.99428C19.3384 2.6223 16.8212 1.07607 13.8058 1.26877L13.6786 1.27785L13.5239 1.30627C9.24008 2.11911 6.87047 4.61349 6.30985 8.89725L6.28725 9.0792C6.24998 9.39464 5.98276 9.63226 5.66521 9.63226C2.39199 9.63226 1.03661 10.8747 1.27911 13.5417C1.52139 16.2078 3.56129 17.4076 7.71366 17.1481C8.05892 17.1267 8.35616 17.389 8.37787 17.734C8.39931 18.0793 8.13698 18.3765 7.79196 18.3982L7.43482 18.4171C2.90313 18.6139 0.338258 17.0244 0.0323046 13.655C-0.260772 10.4307 1.44667 8.63124 4.89529 8.40431L5.11708 8.39196L5.11847 8.38474C5.83785 3.76658 8.59924 0.962551 13.3047 0.0733193L13.4889 0.0397718L13.5449 0.0321032Z" fill="#F0BF35"/>
<path d="M10.6746 13.3894C11 13.3894 11.2675 13.6378 11.298 13.9553L11.3008 14.0156V19.8604C11.3008 21.5897 9.899 22.9915 8.16968 22.9915C7.82372 22.9915 7.54346 22.7112 7.54346 22.3652C7.54346 22.0193 7.82372 21.739 8.16968 21.739C9.17747 21.739 10.0001 20.9453 10.0462 19.9489L10.0483 19.8603V14.0156C10.0483 13.6697 10.3286 13.3894 10.6746 13.3894L10.6746 13.3894Z" fill="#F0BF35"/>
<path d="M18.1892 13.3894C17.8637 13.3894 17.5963 13.6378 17.5658 13.9553L17.563 14.0156V19.8604C17.563 21.5897 18.9648 22.9915 20.6941 22.9915C21.04 22.9915 21.3203 22.7112 21.3203 22.3652C21.3203 22.0193 21.04 21.739 20.6941 21.739C19.6863 21.739 18.8637 20.9453 18.8175 19.9489L18.8154 19.8603V14.0156C18.8154 13.6697 18.5352 13.3894 18.1892 13.3894L18.1892 13.3894Z" fill="#F0BF35"/>
<path d="M10.6746 9.2146C11 9.2146 11.2675 9.46295 11.298 9.78048L11.3008 9.84082V11.9282C11.3008 12.2742 11.0205 12.5544 10.6746 12.5544C10.3491 12.5544 10.0816 12.3061 10.0511 11.9886L10.0483 11.9282V9.84082C10.0483 9.49486 10.3286 9.2146 10.6746 9.2146Z" fill="#F0BF35"/>
<path d="M14.4319 7.1272C14.7573 7.1272 15.0248 7.37554 15.0553 7.69308L15.0581 7.75342V9.84082C15.0581 10.1868 14.7778 10.467 14.4319 10.467C14.1064 10.467 13.839 10.2187 13.8085 9.90115L13.8057 9.84082V7.75342C13.8057 7.40746 14.0859 7.1272 14.4319 7.1272Z" fill="#F0BF35"/>
<path d="M14.4319 11.302C14.7573 11.302 15.0248 11.5503 15.0553 11.8679L15.0581 11.9282V22.7827C15.0581 23.1287 14.7778 23.4089 14.4319 23.4089C14.1064 23.4089 13.839 23.1606 13.8085 22.843L13.8057 22.7827V11.9282C13.8057 11.5823 14.0859 11.302 14.4319 11.302Z" fill="#F0BF35"/>
<path d="M18.189 8.79712C18.5144 8.79712 18.7819 9.04547 18.8124 9.363L18.8152 9.42334V11.9282C18.8152 12.2742 18.5349 12.5544 18.189 12.5544C17.8635 12.5544 17.5961 12.3061 17.5655 11.9886L17.5627 11.9282V9.42334C17.5627 9.07738 17.843 8.79712 18.189 8.79712Z" fill="#F0BF35"/>
<path d="M18.189 6.29224C18.5144 6.29224 18.7819 6.54058 18.8124 6.85812L18.8152 6.91846V7.33594C18.8152 7.68189 18.5349 7.96215 18.189 7.96215C17.8635 7.96215 17.5961 7.71381 17.5655 7.39627L17.5627 7.33594V6.91846C17.5627 6.5725 17.843 6.29224 18.189 6.29224Z" fill="#F0BF35"/>
<path d="M14.4319 4.62231C14.7573 4.62231 15.0248 4.87066 15.0553 5.1882L15.0581 5.24853V5.66601C15.0581 6.01197 14.7778 6.29223 14.4319 6.29223C14.1064 6.29223 13.839 6.04389 13.8085 5.72635L13.8057 5.66601V5.24853C13.8057 4.90257 14.0859 4.62231 14.4319 4.62231Z" fill="#F0BF35"/>
<path d="M10.6746 6.70972C11 6.70972 11.2675 6.95806 11.298 7.2756L11.3008 7.33594V7.75342C11.3008 8.09938 11.0205 8.37964 10.6746 8.37964C10.3491 8.37964 10.0816 8.13129 10.0511 7.81375L10.0483 7.75342V7.33594C10.0483 6.98998 10.3286 6.70972 10.6746 6.70972Z" fill="#F0BF35"/>
<path d="M14.4319 22.9915C13.3943 22.9915 12.5532 23.8325 12.5532 24.8701C12.5532 25.9077 13.3943 26.7488 14.4319 26.7488C15.4695 26.7488 16.3105 25.9077 16.3105 24.8701C16.3105 23.8325 15.4695 22.9915 14.4319 22.9915ZM14.4319 24.2439C14.7778 24.2439 15.0581 24.5242 15.0581 24.8701C15.0581 25.2161 14.7778 25.4963 14.4319 25.4963C14.0859 25.4963 13.8057 25.2161 13.8057 24.8701C13.8057 24.5242 14.0859 24.2439 14.4319 24.2439Z" fill="#F0BF35"/>
<path d="M22.3638 20.4866C21.3262 20.4866 20.4851 21.3276 20.4851 22.3652C20.4851 23.4028 21.3262 24.2439 22.3638 24.2439C23.4014 24.2439 24.2424 23.4028 24.2424 22.3652C24.2424 21.3276 23.4014 20.4866 22.3638 20.4866ZM22.3638 21.739C22.7097 21.739 22.99 22.0193 22.99 22.3652C22.99 22.7112 22.7097 22.9915 22.3638 22.9915C22.0178 22.9915 21.7375 22.7112 21.7375 22.3652C21.7375 22.0193 22.0178 21.739 22.3638 21.739Z" fill="#F0BF35"/>
<path d="M6.49975 20.4866C5.46214 20.4866 4.62109 21.3276 4.62109 22.3652C4.62109 23.4028 5.46214 24.2439 6.49975 24.2439C7.53737 24.2439 8.37841 23.4028 8.37841 22.3652C8.37841 21.3276 7.53737 20.4866 6.49975 20.4866ZM6.49975 21.739C6.84571 21.739 7.12597 22.0193 7.12597 22.3652C7.12597 22.7112 6.84571 22.9915 6.49975 22.9915C6.15379 22.9915 5.87353 22.7112 5.87353 22.3652C5.87353 22.0193 6.15379 21.739 6.49975 21.739Z" fill="#F0BF35"/>
</svg>
