<svg width="28" height="28" viewBox="0 0 28 28" fill="none" xmlns="http://www.w3.org/2000/svg">
<path d="M18.0981 10.9828C17.8481 10.7803 17.482 10.8179 17.2789 11.0676L13.7305 15.4301L11.4188 13.5022C11.1716 13.2961 10.8044 13.3294 10.5986 13.5764C10.3925 13.8234 10.4258 14.1906 10.6728 14.3964L13.4375 16.7018C13.5574 16.8014 13.7115 16.8494 13.8664 16.8342C14.0211 16.8196 14.1638 16.7429 14.2623 16.6219L18.1826 11.8021C18.3849 11.5524 18.3475 11.1854 18.0981 10.9829L18.0981 10.9828Z" fill="#F0BF35"/>
<path d="M14.0425 3.75415C8.35958 3.75415 3.75439 8.3601 3.75439 14.0423C3.75439 19.7241 8.35951 24.3304 14.0425 24.3304C19.7257 24.3304 24.3306 19.724 24.3306 14.0423C24.3309 8.36072 19.7261 3.75415 14.0425 3.75415ZM14.0425 23.1657C9.01222 23.1657 4.91909 19.073 4.91909 14.0423C4.91909 9.01156 9.01208 4.91884 14.0425 4.91884C19.0736 4.91884 23.166 9.01156 23.166 14.0423C23.166 19.073 19.0735 23.1657 14.0425 23.1657Z" fill="#F0BF35"/>
<path d="M27.9315 17.9446L27.275 15.291C27.1848 14.933 27.1315 14.3946 27.1326 13.8671C27.1318 13.3737 27.1789 12.8803 27.258 12.5447L27.8819 9.88375L27.8822 9.88267C27.9236 9.70204 27.9431 9.51897 27.9437 9.33672C27.942 8.86063 27.8156 8.39325 27.5951 7.97645C27.3739 7.56076 27.0559 7.19028 26.6408 6.93842L24.2996 5.52616C23.9936 5.34282 23.5914 5.01649 23.2288 4.65659C22.8646 4.29831 22.5329 3.90023 22.3458 3.59665L20.9053 1.27336C20.6511 0.865797 20.2828 0.555205 19.8695 0.339321C19.4557 0.123756 18.9932 0.000811126 18.5228 0C18.33 0 18.1358 0.0216645 17.9446 0.0687854L15.2915 0.72577C14.9326 0.815139 14.3943 0.869027 13.8667 0.868216C13.3733 0.869028 12.8799 0.821908 12.5452 0.742831L9.88396 0.118888C9.70279 0.0766417 9.51892 0.0571443 9.3372 0.0571443C8.86085 0.0579568 8.3929 0.18524 7.97694 0.405672C7.56071 0.626922 7.19077 0.944848 6.9389 1.3603L5.52692 3.70064C5.34332 4.00693 5.01672 4.4091 4.65735 4.77223C4.29907 5.13647 3.90072 5.46793 3.59741 5.65477L1.27413 7.09545C0.866019 7.34947 0.555136 7.71804 0.339321 8.13126C0.123756 8.54479 0.0010815 9.0079 0 9.47801C0.000270791 9.67082 0.0216649 9.86553 0.0690562 10.0565L0.72604 12.7096C0.814862 13.0676 0.869027 13.606 0.867675 14.1335C0.868758 14.6269 0.822179 15.1209 0.74256 15.4561L0.118617 18.1171L0.11943 18.1141C0.0755589 18.2983 0.0568732 18.4824 0.0566022 18.6639C0.0576855 19.1402 0.184698 19.6076 0.40513 20.0247C0.626921 20.4404 0.944307 20.8106 1.35976 21.0627L3.70114 22.4747C4.00661 22.6583 4.40932 22.9849 4.7719 23.3443C5.13614 23.7026 5.46732 24.1006 5.65443 24.4045L7.09512 26.7272C7.34914 27.1348 7.71771 27.4454 8.13017 27.6613C8.54397 27.8768 9.00681 27.9998 9.47775 28.0006C9.67029 28.0006 9.86446 27.9792 10.0554 27.9318L12.7093 27.2754C13.0665 27.1857 13.6057 27.1318 14.1332 27.1329C14.6266 27.1321 15.1205 27.1787 15.4555 27.2583L18.1165 27.8822C18.2974 27.9245 18.4808 27.9437 18.6633 27.9437C19.1394 27.9429 19.607 27.8156 20.0241 27.5955C20.4395 27.3737 20.8103 27.0563 21.0621 26.6408L22.4741 24.3005C22.6577 23.9942 22.9843 23.592 23.3437 23.2289C23.7017 22.8647 24.1 22.5332 24.4036 22.3464L26.7269 20.9057C27.135 20.6514 27.4451 20.2826 27.6609 19.8699C27.876 19.4561 27.9992 18.9932 28 18.5226C27.9997 18.3306 27.9315 17.9447 27.9315 17.9447L27.9315 17.9446ZM26.6283 19.3306C26.4965 19.5857 26.3077 19.7956 26.1133 19.9153L23.7905 21.356C23.3681 21.6189 22.9258 21.9953 22.5152 22.4105C22.1058 22.8262 21.7345 23.273 21.4772 23.6982L20.0652 26.0385C19.9469 26.237 19.7351 26.4304 19.4781 26.5658C19.2219 26.7028 18.924 26.7797 18.6632 26.7786C18.5628 26.7786 18.468 26.7681 18.3821 26.748L15.7212 26.1241C15.2527 26.0155 14.6967 25.9689 14.1326 25.9681C13.529 25.9689 12.9275 26.022 12.4281 26.1447L9.77451 26.8011C9.68379 26.8241 9.58278 26.8358 9.47635 26.8358C9.2161 26.8369 8.922 26.7624 8.66799 26.6289C8.41343 26.4964 8.20329 26.3082 8.08413 26.1138L6.64289 23.7905C6.37993 23.3686 6.00378 22.9258 5.58891 22.5155C5.17322 22.1055 4.72641 21.7345 4.30123 21.4767L1.96006 20.0647C1.76156 19.9467 1.5682 19.7352 1.43279 19.4776C1.29549 19.2217 1.21886 18.9241 1.21994 18.663C1.21967 18.5617 1.22996 18.468 1.25054 18.3846V18.3819L1.87475 15.721C1.98335 15.2527 2.02966 14.6965 2.03074 14.1327C2.02966 13.529 1.97604 12.9276 1.85444 12.429L1.19719 9.77512C1.17471 9.68386 1.16252 9.58339 1.16306 9.47669C1.16198 9.21699 1.23645 8.92262 1.36996 8.66889C1.50184 8.41352 1.6906 8.20392 1.88558 8.08422L4.20887 6.64353C4.63133 6.38058 5.07358 6.00415 5.48414 5.589C5.8936 5.17331 6.26462 4.7265 6.52217 4.30132L7.93416 1.9607C8.0525 1.7622 8.26373 1.56885 8.52127 1.43344C8.77718 1.2964 9.07454 1.22004 9.33586 1.22058C9.43606 1.22058 9.53003 1.23114 9.61642 1.25172L12.2777 1.87567C12.7454 1.98426 13.3014 2.03084 13.8654 2.03165C14.469 2.03057 15.0705 1.97695 15.5702 1.85508L18.2238 1.1981C18.315 1.17508 18.4152 1.16344 18.5219 1.16344C18.7817 1.16262 19.076 1.23683 19.3297 1.37034C19.5848 1.50276 19.7953 1.69151 19.9144 1.88623L21.3551 4.20896C21.6183 4.63087 21.9942 5.07312 22.4091 5.48395C22.8253 5.89341 23.2721 6.26471 23.6973 6.52247L26.0379 7.93445C26.2364 8.05279 26.4293 8.26403 26.5647 8.52157C26.702 8.77748 26.7786 9.0751 26.7775 9.33616C26.7778 9.43636 26.767 9.53141 26.7469 9.61834V9.61753L26.123 12.2785C26.0147 12.7462 25.967 13.3027 25.9664 13.8668C25.9675 14.4701 26.0209 15.0713 26.1436 15.5715L26.8005 18.2239H26.8003C26.8233 18.3143 26.8344 18.4148 26.8344 18.5223C26.836 18.782 26.7618 19.0766 26.6283 19.3306L26.6283 19.3306Z" fill="#F0BF35"/>
</svg>
