<svg width="28" height="28" viewBox="0 0 28 28" fill="none" xmlns="http://www.w3.org/2000/svg">
<path d="M14.2333 0C13.0734 0 12.1333 0.940133 12.1333 2.1C12.1333 3.25987 13.0734 4.2 14.2333 4.2C15.3932 4.2 16.3333 3.25987 16.3333 2.1C16.3333 0.940133 15.3932 0 14.2333 0ZM14.2333 1.4C14.62 1.4 14.9333 1.71328 14.9333 2.1C14.9333 2.48672 14.62 2.8 14.2333 2.8C13.8466 2.8 13.5333 2.48672 13.5333 2.1C13.5333 1.71328 13.8466 1.4 14.2333 1.4Z" fill="#F0BF35"/>
<path d="M14.2333 7.93384C13.0734 7.93384 12.1333 8.87397 12.1333 10.0338C12.1333 11.1937 13.0734 12.1338 14.2333 12.1338C15.3932 12.1338 16.3333 11.1937 16.3333 10.0338C16.3333 8.87397 15.3932 7.93384 14.2333 7.93384ZM14.2333 9.33384C14.62 9.33384 14.9333 9.64712 14.9333 10.0338C14.9333 10.4206 14.62 10.7338 14.2333 10.7338C13.8466 10.7338 13.5333 10.4206 13.5333 10.0338C13.5333 9.64712 13.8466 9.33384 14.2333 9.33384Z" fill="#F0BF35"/>
<path d="M14.2333 15.8667C13.0734 15.8667 12.1333 16.8068 12.1333 17.9667C12.1333 19.1266 13.0734 20.0667 14.2333 20.0667C15.3932 20.0667 16.3333 19.1266 16.3333 17.9667C16.3333 16.8068 15.3932 15.8667 14.2333 15.8667ZM14.2333 17.2667C14.62 17.2667 14.9333 17.58 14.9333 17.9667C14.9333 18.3534 14.62 18.6667 14.2333 18.6667C13.8466 18.6667 13.5333 18.3534 13.5333 17.9667C13.5333 17.58 13.8466 17.2667 14.2333 17.2667Z" fill="#F0BF35"/>
<path d="M14.2333 23.8003C13.0734 23.8003 12.1333 24.7404 12.1333 25.9003C12.1333 27.0602 13.0734 28.0003 14.2333 28.0003C15.3932 28.0003 16.3333 27.0602 16.3333 25.9003C16.3333 24.7404 15.3932 23.8003 14.2333 23.8003ZM14.2333 25.2003C14.62 25.2003 14.9333 25.5136 14.9333 25.9003C14.9333 26.287 14.62 26.6003 14.2333 26.6003C13.8466 26.6003 13.5333 26.287 13.5333 25.9003C13.5333 25.5136 13.8466 25.2003 14.2333 25.2003Z" fill="#F0BF35"/>
<path d="M2.1 4.19971C0.940133 4.19971 0 5.13984 0 6.29971C0 7.45957 0.940133 8.39971 2.1 8.39971C3.25987 8.39971 4.2 7.45957 4.2 6.29971C4.2 5.13984 3.25987 4.19971 2.1 4.19971ZM2.1 5.59971C2.48672 5.59971 2.8 5.91299 2.8 6.29971C2.8 6.68643 2.48672 6.99971 2.1 6.99971C1.71328 6.99971 1.4 6.68643 1.4 6.29971C1.4 5.91299 1.71328 5.59971 2.1 5.59971Z" fill="#F0BF35"/>
<path d="M25.9 4.19971C24.7402 4.19971 23.8 5.13984 23.8 6.29971C23.8 7.45957 24.7402 8.39971 25.9 8.39971C27.0599 8.39971 28 7.45957 28 6.29971C28 5.13984 27.0599 4.19971 25.9 4.19971ZM25.9 5.59971C26.2868 5.59971 26.6 5.91299 26.6 6.29971C26.6 6.68643 26.2868 6.99971 25.9 6.99971C25.5133 6.99971 25.2 6.68643 25.2 6.29971C25.2 5.91299 25.5133 5.59971 25.9 5.59971Z" fill="#F0BF35"/>
<path d="M2.1 12.1333C0.940133 12.1333 0 13.0734 0 14.2333C0 15.3932 0.940133 16.3333 2.1 16.3333C3.25987 16.3333 4.2 15.3932 4.2 14.2333C4.2 13.0734 3.25987 12.1333 2.1 12.1333ZM2.1 13.5333C2.48672 13.5333 2.8 13.8466 2.8 14.2333C2.8 14.62 2.48672 14.9333 2.1 14.9333C1.71328 14.9333 1.4 14.62 1.4 14.2333C1.4 13.8466 1.71328 13.5333 2.1 13.5333Z" fill="#F0BF35"/>
<path d="M25.9 12.1333C24.7402 12.1333 23.8 13.0734 23.8 14.2333C23.8 15.3932 24.7402 16.3333 25.9 16.3333C27.0599 16.3333 28 15.3932 28 14.2333C28 13.0734 27.0599 12.1333 25.9 12.1333ZM25.9 13.5333C26.2868 13.5333 26.6 13.8466 26.6 14.2333C26.6 14.62 26.2868 14.9333 25.9 14.9333C25.5133 14.9333 25.2 14.62 25.2 14.2333C25.2 13.8466 25.5133 13.5333 25.9 13.5333Z" fill="#F0BF35"/>
<path d="M2.1 19.5999C0.940133 19.5999 0 20.54 0 21.6999C0 22.8597 0.940133 23.7999 2.1 23.7999C3.25987 23.7999 4.2 22.8597 4.2 21.6999C4.2 20.54 3.25987 19.5999 2.1 19.5999ZM2.1 20.9999C2.48672 20.9999 2.8 21.3131 2.8 21.6999C2.8 22.0866 2.48672 22.3999 2.1 22.3999C1.71328 22.3999 1.4 22.0866 1.4 21.6999C1.4 21.3131 1.71328 20.9999 2.1 20.9999Z" fill="#F0BF35"/>
<path d="M25.9 19.5999C24.7402 19.5999 23.8 20.54 23.8 21.6999C23.8 22.8597 24.7402 23.7999 25.9 23.7999C27.0599 23.7999 28 22.8597 28 21.6999C28 20.54 27.0599 19.5999 25.9 19.5999ZM25.9 20.9999C26.2868 20.9999 26.6 21.3131 26.6 21.6999C26.6 22.0866 26.2868 22.3999 25.9 22.3999C25.5133 22.3999 25.2 22.0866 25.2 21.6999C25.2 21.3131 25.5133 20.9999 25.9 20.9999Z" fill="#F0BF35"/>
<path d="M10.1587 2.4988C10.5089 2.33552 10.9253 2.48708 11.0889 2.83734C11.2425 3.16703 11.1172 3.55554 10.8099 3.73627L10.7503 3.76752L6.17531 5.90086C5.82505 6.06414 5.40864 5.91258 5.24511 5.56232C5.09146 5.23263 5.21673 4.84412 5.52402 4.66338L5.58365 4.63213L10.1587 2.4988Z" fill="#F0BF35"/>
<path d="M10.1675 9.976C10.5188 9.81454 10.9345 9.96845 11.0959 10.3197C11.248 10.6502 11.1207 11.0379 10.8123 11.2171L10.7524 11.2481L6.16596 13.3567C5.81466 13.5182 5.39903 13.3643 5.23756 13.013C5.08548 12.6825 5.21282 12.2948 5.52115 12.1156L5.58105 12.0846L10.1675 9.976Z" fill="#F0BF35"/>
<path d="M10.1587 18.0346C10.5089 18.1979 10.9253 18.0464 11.0889 17.6961C11.2425 17.3664 11.1172 16.9779 10.8099 16.7972L10.7503 16.7659L6.17531 14.6326C5.82505 14.4693 5.40864 14.6209 5.24511 14.9711C5.09146 15.3008 5.21673 15.6893 5.52402 15.8701L5.58365 15.9013L10.1587 18.0346Z" fill="#F0BF35"/>
<path d="M10.1675 25.4908C10.5188 25.6522 10.9345 25.4983 11.0959 25.147C11.248 24.8166 11.1207 24.4288 10.8123 24.2496L10.7524 24.2186L6.16596 22.11C5.81466 21.9486 5.39903 22.1025 5.23756 22.4538C5.08548 22.7842 5.21282 23.172 5.52115 23.3512L5.58105 23.3822L10.1675 25.4908Z" fill="#F0BF35"/>
<path d="M17.8411 2.4988C17.4908 2.33552 17.0744 2.48708 16.9109 2.83734C16.7572 3.16703 16.8825 3.55554 17.1898 3.73627L17.2494 3.76752L21.8244 5.90086C22.1747 6.06414 22.5911 5.91258 22.7546 5.56232C22.9083 5.23263 22.783 4.84412 22.4757 4.66338L22.4161 4.63213L17.8411 2.4988Z" fill="#F0BF35"/>
<path d="M17.8327 9.976C17.4814 9.81454 17.0658 9.96845 16.9043 10.3197C16.7522 10.6502 16.8796 11.0379 17.1879 11.2171L17.2478 11.2481L21.8343 13.3567C22.1856 13.5182 22.6012 13.3643 22.7627 13.013C22.9147 12.6825 22.7874 12.2948 22.4791 12.1156L22.4192 12.0846L17.8327 9.976Z" fill="#F0BF35"/>
<path d="M17.8411 18.0346C17.4908 18.1979 17.0744 18.0464 16.9109 17.6961C16.7572 17.3664 16.8825 16.9779 17.1898 16.7972L17.2494 16.7659L21.8244 14.6326C22.1747 14.4693 22.5911 14.6209 22.7546 14.9711C22.9083 15.3008 22.783 15.6893 22.4757 15.8701L22.4161 15.9013L17.8411 18.0346Z" fill="#F0BF35"/>
<path d="M17.8327 25.4908C17.4814 25.6522 17.0658 25.4983 16.9043 25.147C16.7522 24.8166 16.8796 24.4288 17.1879 24.2496L17.2478 24.2186L21.8343 22.11C22.1856 21.9486 22.6012 22.1025 22.7627 22.4538C22.9147 22.7842 22.7874 23.172 22.4791 23.3512L22.4192 23.3822L17.8327 25.4908Z" fill="#F0BF35"/>
</svg>
