<svg width="28" height="34" viewBox="0 0 28 34" fill="none" xmlns="http://www.w3.org/2000/svg">
<path d="M19.548 19.2702L14.6224 8.41187C14.5887 8.34428 14.548 8.28349 14.494 8.22947C14.4804 8.2159 14.4669 8.20233 14.4468 8.18904C14.3996 8.1486 14.3521 8.11467 14.298 8.0878C14.2777 8.07423 14.2576 8.06744 14.2372 8.06065C14.1629 8.03351 14.0817 8.01343 14.0008 8.01343C13.9197 8.01343 13.8388 8.03379 13.7644 8.06065C13.7441 8.06744 13.724 8.08101 13.7036 8.0878C13.6496 8.11495 13.6024 8.1486 13.5549 8.18904C13.5413 8.20261 13.5212 8.21618 13.5076 8.22947C13.4536 8.28349 13.4129 8.34428 13.3793 8.41187L8.4667 19.2702C8.37876 19.473 8.38554 19.7026 8.50036 19.8918L10.5477 23.3851C10.3045 23.4863 10.1357 23.7298 10.1357 24.0066V33.108C10.1357 33.4795 10.4397 33.7835 10.8113 33.7835H17.2099C17.5815 33.7835 17.8855 33.4795 17.8855 33.108L17.8858 24.0066C17.8858 23.7295 17.717 23.4863 17.4738 23.3851L19.5211 19.8918C19.6289 19.6958 19.6357 19.4659 19.548 19.2699L19.548 19.2702ZM16.5343 32.4328H11.4871V24.6831H16.5413L16.5411 32.4328H16.5343ZM15.9331 23.3315H12.075L9.83842 19.5071L13.3317 11.8116V17.8859H13.1357C12.7642 17.8859 12.4602 18.1899 12.4602 18.5615C12.4602 18.933 12.7642 19.237 13.1357 19.237H14.8788C15.2504 19.237 15.5544 18.933 15.5544 18.5615C15.5544 18.1899 15.2504 17.8859 14.8788 17.8859H14.6829V11.8116L18.1693 19.5078L15.9331 23.3315Z" fill="#F0BF35"/>
<path d="M2.29083 11.3785C1.00019 11.5609 0.0070222 12.6624 0.0070222 14.0071C0.0070222 15.4734 1.20297 16.6692 2.66916 16.6692C4.13542 16.6692 5.33129 15.4733 5.33129 14.0071C5.33129 12.8788 4.62856 11.9193 3.63539 11.5341C4.56095 7.63557 7.63544 4.56789 11.527 3.64248C11.919 4.62885 12.8785 5.33838 14 5.33838C15.1283 5.33838 16.0878 4.63565 16.473 3.64248C20.3715 4.56804 23.4392 7.64252 24.3646 11.5341C23.3782 11.9261 22.6687 12.8856 22.6687 14.0071C22.6687 15.4734 23.8647 16.6692 25.3308 16.6692C26.7971 16.6692 27.993 15.4733 27.993 14.0071C27.993 12.6693 26.9931 11.5681 25.7092 11.3785C24.9253 7.87845 22.6214 4.95274 19.5269 3.33778H27.3244C27.696 3.33778 28 3.03378 28 2.6622C28 2.29062 27.696 1.98662 27.3244 1.98662L16.574 1.98634C16.27 0.844473 15.2429 0 14.0065 0C12.7702 0 11.7431 0.84469 11.4391 1.98656L0.675578 1.98627C0.303996 1.98627 0 2.29027 0 2.66185C0 3.03343 0.303996 3.33743 0.675578 3.33743H8.4731C5.37176 4.95246 3.0679 7.87818 2.29083 11.3782V11.3785ZM2.6692 15.3178C1.94611 15.3178 1.35851 14.7299 1.35851 14.0071C1.35851 13.284 1.94643 12.6964 2.6692 12.6964C3.39229 12.6964 3.97989 13.2843 3.97989 14.0071C3.97989 14.7299 3.39225 15.3178 2.6692 15.3178ZM26.6626 14.0071C26.6626 14.7302 26.0747 15.3178 25.352 15.3178C24.6289 15.3178 24.0413 14.7299 24.0413 14.0071C24.0413 13.284 24.6292 12.6964 25.352 12.6964C26.0748 12.6961 26.6626 13.284 26.6626 14.0071ZM14.0075 1.35122C14.7306 1.35122 15.3182 1.93914 15.3182 2.66191C15.3182 3.385 14.7303 3.9726 14.0075 3.9726C13.2844 3.9726 12.6968 3.38468 12.6968 2.66191C12.6968 1.93914 13.2844 1.35122 14.0075 1.35122Z" fill="#F0BF35"/>
<circle cx="13.972" cy="2.67866" r="2.3166" fill="#F0BF35"/>
</svg>
