<svg width="33" height="24" viewBox="0 0 33 24" fill="none" xmlns="http://www.w3.org/2000/svg">
<path d="M29.0965 9.00952C28.6455 6.2066 26.0359 4.30556 23.684 4.40245C21.3641 -1.5579 12.7621 -1.42902 10.6679 4.56359C7.44609 3.91928 4.48202 6.07783 4.03097 9.13855C2.03328 9.81502 0.680176 11.7158 0.680176 13.8746C0.680176 16.6454 2.93538 18.9006 5.73853 18.9006H14.9851C15.2108 20.5115 16.4673 21.768 18.0458 22.0257L17.788 22.2835C17.5947 22.4768 17.5947 22.799 17.788 23.0245C17.8846 23.1211 18.0136 23.1856 18.1424 23.1856C18.2712 23.1856 18.4002 23.1211 18.4968 23.0245L19.9466 21.5747L18.4968 20.1249C18.3036 19.9317 17.9813 19.9317 17.7559 20.1249C17.5626 20.3182 17.5626 20.6405 17.7559 20.8659L17.8204 20.9304C16.725 20.576 15.9517 19.5451 15.9517 18.3529C15.9517 16.8708 17.1761 15.6466 18.658 15.6466C20.1401 15.6466 21.3642 16.871 21.3642 18.3529C21.3642 20.4149 23.0396 22.0903 25.1016 22.0903C27.0348 22.0903 28.6133 20.6081 28.8066 18.7397C31.0297 18.192 32.6727 16.2267 32.6727 13.8748C32.8017 11.587 31.2551 9.55717 29.0965 9.00952ZM28.8064 17.7084C28.5486 16.162 27.3242 14.9376 25.7778 14.6798L26.0356 14.4221C26.2289 14.2288 26.2289 13.9065 26.0356 13.6811C25.8423 13.4878 25.5201 13.4878 25.2946 13.6811L23.877 15.1311L25.3267 16.5809C25.4234 16.6775 25.5524 16.742 25.6812 16.742C25.8099 16.742 25.9389 16.6775 26.0356 16.5809C26.2288 16.3876 26.2288 16.0653 26.0356 15.8399L25.9713 15.7754C27.0666 16.1298 27.8399 17.1607 27.8399 18.3529C27.8399 19.835 26.6156 21.0592 25.1337 21.0592C23.6515 21.0592 22.4274 19.8348 22.4274 18.3529C22.4274 16.2909 20.752 14.6155 18.6901 14.6155C16.7893 14.6155 15.2105 16.0332 14.9851 17.9018H5.73851C3.54757 17.9018 1.67892 16.0975 1.67892 13.8746C1.67892 12.0059 2.87093 10.4595 4.64298 9.94398C4.83626 9.87948 4.99739 9.68621 4.99739 9.49294C5.25517 6.78668 7.8969 4.72472 10.8289 5.62683C11.0866 5.72346 11.3765 5.56233 11.4411 5.27242C12.9875 -0.333587 20.9776 -0.494618 22.7818 5.07914C22.8785 5.33692 23.0717 5.46569 23.3295 5.43355C25.2948 5.14364 27.8078 6.88331 28.0335 9.46081C28.0335 9.65409 28.2267 9.84736 28.42 9.91186C30.3208 10.2663 31.674 11.9093 31.674 13.8746C31.7063 15.6788 30.4818 17.2252 28.8064 17.7084ZM17.079 4.04794C15.5326 4.04794 14.1795 5.11113 13.7605 6.56094C13.696 6.81872 13.8572 7.10862 14.115 7.17315C14.3727 7.26978 14.6305 7.10865 14.7272 6.88323C15.0171 5.82004 15.9837 5.07908 17.079 5.07908C17.3689 5.07908 17.5946 4.88581 17.5946 4.56354C17.5946 4.24127 17.4013 4.04794 17.079 4.04794Z" fill="#F0BF35"/>
<path d="M13.7605 6.56094C14.1795 5.11113 15.5326 4.04794 17.079 4.04794C17.4013 4.04794 17.5946 4.24127 17.5946 4.56354C17.5946 4.88581 17.3689 5.07908 17.079 5.07908C15.9837 5.07908 15.0171 5.82004 14.7272 6.88323C14.6305 7.10865 14.3727 7.26978 14.115 7.17315C13.8572 7.10862 13.696 6.81872 13.7605 6.56094Z" fill="#F0BF35"/>
</svg>
