<svg width="28" height="32" viewBox="0 0 28 32" fill="none" xmlns="http://www.w3.org/2000/svg">
<path d="M17.416 12.2494C17.3659 12.1689 17.3398 12.0762 17.3401 11.9813V0.506069C17.3401 0.226659 17.5666 0.00017157 17.8457 0.00017157C18.1251 0.00017157 18.3516 0.226659 18.3516 0.506069V11.8349L19.5503 13.7717C19.6215 13.8857 19.6445 14.0232 19.6141 14.1541C19.5838 14.2854 19.5027 14.3986 19.3884 14.4695C19.3079 14.5196 19.2148 14.5457 19.1202 14.5454C18.9456 14.5457 18.783 14.4561 18.6902 14.3079L17.416 12.2494ZM14.4928 28.5247H2.14248C1.73925 28.5272 1.36564 28.313 1.16348 27.9638C0.961689 27.6145 0.962746 27.1838 1.16631 26.8356L4.88359 20.0988H14.3213C14.6007 20.0988 14.8272 19.8726 14.8272 19.5932C14.8272 19.3138 14.6007 19.0873 14.3213 19.0873H5.43532L9.21826 12.2193C9.25848 12.1448 9.27929 12.0612 9.27894 11.9766V0.505898C9.27894 0.226487 9.05246 0 8.7734 0C8.49399 0 8.2675 0.226487 8.2675 0.505898V11.8501L0.2868 26.34C0.034908 26.7749 -0.0550529 27.2847 0.0327947 27.7794C0.120639 28.2743 0.380644 28.7221 0.76694 29.0434C1.15288 29.3651 1.64044 29.5398 2.14277 29.5362H14.4931C14.7721 29.5362 14.9986 29.3101 14.9986 29.0307C14.9986 28.7513 14.7721 28.5248 14.4931 28.5248L14.4928 28.5247ZM16.3439 2.39712C16.3439 2.79964 16.1837 3.1856 15.8993 3.47031C15.6146 3.75465 15.2287 3.91447 14.8265 3.91447C14.424 3.91447 14.038 3.75466 13.7537 3.47031C13.469 3.18561 13.3092 2.79966 13.3092 2.39712C13.3092 1.99494 13.469 1.60899 13.7537 1.32429C14.038 1.03995 14.424 0.880128 14.8265 0.880128C15.2287 0.880128 15.6146 1.03994 15.8993 1.32429C16.1837 1.60898 16.3439 1.99493 16.3439 2.39712ZM15.3324 2.39712H15.3321C15.3321 2.19286 15.209 2.00835 15.0199 1.93003C14.8311 1.85171 14.6135 1.8951 14.4688 2.03974C14.3242 2.18439 14.2808 2.4017 14.3591 2.59079C14.4374 2.77989 14.6219 2.90301 14.8265 2.90301C14.9606 2.90301 15.0894 2.84974 15.1839 2.75484C15.2788 2.65994 15.3321 2.53152 15.3321 2.39712H15.3324ZM10.7808 6.44324H10.7805C10.7805 6.04106 10.9403 5.65511 11.225 5.37041C11.5093 5.08606 11.8953 4.92589 12.2978 4.92589C12.7 4.92589 13.086 5.08606 13.3707 5.37041C13.655 5.6551 13.8152 6.04105 13.8152 6.44324C13.8152 6.84576 13.655 7.23171 13.3707 7.51606C13.086 7.80076 12.7 7.96058 12.2978 7.96058C11.8953 7.96058 11.5093 7.80077 11.225 7.51606C10.9403 7.23172 10.7805 6.84577 10.7805 6.44324H10.7808ZM11.7923 6.44324H11.7919C11.7919 6.64785 11.915 6.83236 12.1041 6.91068C12.2932 6.989 12.5105 6.9456 12.6552 6.80097C12.7998 6.65632 12.8432 6.43866 12.7649 6.24991C12.6866 6.06081 12.5024 5.9377 12.2978 5.9377C12.0184 5.9377 11.7919 6.16383 11.7919 6.44324L11.7923 6.44324ZM15.8384 12.8914L15.838 12.8918C15.838 13.5289 15.5851 14.1399 15.1342 14.5905C14.6837 15.041 14.0727 15.2939 13.4355 15.2939C12.7984 15.2939 12.1874 15.041 11.7368 14.5905C11.2863 14.14 11.0334 13.5289 11.0334 12.8918C11.0334 12.2546 11.2863 11.6436 11.7368 11.1928C12.1873 10.7423 12.7983 10.4893 13.4355 10.4893C14.0737 10.4893 14.6854 10.743 15.1363 11.1949C15.5868 11.6465 15.8394 12.2585 15.838 12.8968L15.8384 12.8914ZM14.827 12.8914L14.8266 12.8918C14.8266 12.5228 14.6798 12.1689 14.4191 11.9082C14.1584 11.6475 13.8046 11.5007 13.4355 11.5007C13.0669 11.5007 12.713 11.6475 12.4523 11.9082C12.1912 12.1689 12.0448 12.5227 12.0448 12.8918C12.0448 13.2604 12.1912 13.6143 12.4523 13.875C12.713 14.1361 13.0669 14.2825 13.4355 14.2825C13.8035 14.2825 14.1566 14.1368 14.4173 13.8768C14.678 13.6171 14.8251 13.2647 14.8266 12.8967L14.827 12.8914ZM27.9756 23.6387C27.9809 23.7008 27.9809 23.7636 27.9756 23.8256V28.5593C27.9756 30.198 25.1078 31.0881 22.4122 31.0881C19.7165 31.0881 16.8487 30.198 16.8487 28.5593L16.8491 18.5815C16.8487 18.5131 16.8642 18.4453 16.8946 18.384C17.1172 16.8666 19.8481 16.0524 22.4326 16.0524C25.1282 16.0524 27.996 16.9425 27.996 18.5812V18.5816C28.0013 18.6436 28.0013 18.7064 27.996 18.7685V23.5428C27.9946 23.5759 27.9879 23.6084 27.9756 23.6391L27.9756 23.6387ZM17.8606 23.5427V23.5424C17.8659 23.5741 17.8659 23.6066 17.8606 23.6387C17.8606 24.2606 19.6358 25.156 22.4122 25.156C25.0218 25.156 26.7416 24.3672 26.9638 23.76L26.9641 20.0981C25.892 20.7656 24.127 21.1095 22.4125 21.1095C20.698 21.1095 18.9125 20.7504 17.8609 20.0625L17.8606 23.5427ZM17.8606 18.5811C17.8606 19.2031 19.6358 20.0984 22.4122 20.0984C25.0218 20.0984 26.7416 19.3096 26.9638 18.7025L26.9641 18.5811V18.5307C26.8682 17.9136 25.1233 17.0642 22.4125 17.0642C19.7017 17.0638 17.8606 17.9691 17.8606 18.5811L17.8606 18.5811ZM26.9641 28.5598V25.1558C25.892 25.8233 24.127 26.1672 22.4125 26.1672C20.698 26.1672 18.9125 25.8081 17.8609 25.1201V28.5591C17.8609 29.1761 19.6361 30.0764 22.4125 30.0764C25.1889 30.0768 26.9441 29.2019 26.9441 28.5648L26.9641 28.5598Z" fill="#F0BF35"/>
</svg>
