<svg width="32" height="25" viewBox="0 0 32 25" fill="none" xmlns="http://www.w3.org/2000/svg">
<path d="M25.6629 5.10644C25.5598 5.10644 25.4546 5.10959 25.3467 5.11625C24.3522 2.07703 21.5243 0 18.2852 0C15.6323 0 13.2342 1.38011 11.8951 3.63976C11.3237 3.45397 10.7306 3.36002 10.1252 3.36002C7.30187 3.36002 4.9164 5.42126 4.45191 8.15168C1.96584 8.34133 0 10.4257 0 12.9601C0 15.619 2.16318 17.7822 4.82244 17.7822H7.25314V18.5972C7.25314 18.8987 7.34533 19.1784 7.50308 19.4109C7.34569 19.6433 7.25314 19.9233 7.25314 20.2245V23.5424C7.25314 24.3441 7.90515 24.9961 8.70684 24.9961H23.2932C24.0949 24.9961 24.7469 24.3438 24.7469 23.5424V20.2245C24.7469 19.923 24.6547 19.6433 24.4969 19.4109C24.6543 19.1784 24.7469 18.8984 24.7469 18.5972V17.7822H25.6625C29.1568 17.7822 32 14.9389 32 11.4443C32.0004 7.94977 29.157 5.10645 25.6628 5.10645L25.6629 5.10644ZM8.53331 13.6514V10.3334C8.53331 10.2374 8.61149 10.1596 8.70719 10.1596H23.2935C23.3892 10.1596 23.4674 10.2374 23.4674 10.3334V13.6514C23.4674 13.7474 23.3892 13.8252 23.2935 13.8252H8.70719C8.61149 13.8252 8.53331 13.7474 8.53331 13.6514ZM8.53331 18.5972V15.2789C8.53331 15.1829 8.61149 15.105 8.70719 15.105H23.2935C23.3892 15.105 23.4674 15.1829 23.4674 15.2789V18.5972C23.4674 18.6933 23.3892 18.7711 23.2935 18.7711H8.70719C8.61149 18.7707 8.53331 18.6929 8.53331 18.5972ZM23.4669 23.5423C23.4669 23.6384 23.3888 23.7162 23.2931 23.7162H8.70674C8.61104 23.7162 8.53287 23.6384 8.53287 23.5423V20.2244C8.53287 20.1283 8.61104 20.0505 8.70674 20.0505H23.2931C23.3888 20.0505 23.4669 20.1283 23.4669 20.2244V23.5423ZM25.6624 16.502H24.7468V15.2789C24.7468 14.9778 24.6546 14.6973 24.4969 14.4653C24.6543 14.2329 24.7468 13.9528 24.7468 13.6517V10.3337C24.7468 9.53201 24.0948 8.88002 23.2931 8.88002H8.70678C7.90508 8.88002 7.25308 9.53203 7.25308 10.3337V13.6517C7.25308 13.9531 7.34527 14.2332 7.50303 14.4653C7.34563 14.6977 7.25308 14.9778 7.25308 15.2789V16.502H4.82239C2.86911 16.502 1.27973 14.9129 1.27973 12.9597C1.27973 11.006 2.86911 9.417 4.82239 9.417L4.991 9.42682C5.32858 9.43874 5.63706 9.17687 5.65984 8.82878C5.81093 6.47975 7.77295 4.63972 10.1248 4.63972C10.7491 4.63972 11.3573 4.76837 11.9315 5.02217C12.247 5.16134 12.6123 5.02743 12.764 4.72C13.8115 2.59809 15.927 1.27973 18.2848 1.27973C21.1204 1.27973 23.5767 3.2042 24.2575 5.95984C24.3357 6.27779 24.6382 6.48601 24.9656 6.44044C25.2345 6.40364 25.4556 6.38646 25.6625 6.38646C28.451 6.38646 30.7198 8.65553 30.7198 11.4441C30.7201 14.2327 28.451 16.5018 25.6625 16.5018L25.6624 16.502Z" fill="#F0BF35"/>
<path d="M10.4293 11.3523H9.84493C9.49123 11.3523 9.20483 11.6387 9.20483 11.9924C9.20483 12.3457 9.49123 12.6325 9.84493 12.6325H10.4293C10.783 12.6325 11.0694 12.3461 11.0694 11.9924C11.0694 11.6387 10.783 11.3523 10.4293 11.3523Z" fill="#F0BF35"/>
<path d="M12.7661 11.3523H12.1825C11.8288 11.3523 11.5424 11.6387 11.5424 11.9924C11.5424 12.3457 11.8288 12.6325 12.1825 12.6325H12.7661C13.1198 12.6325 13.4062 12.3461 13.4062 11.9924C13.4062 11.6387 13.1198 11.3523 12.7661 11.3523Z" fill="#F0BF35"/>
<path d="M22.1572 11.3523H16.0118C15.6581 11.3523 15.3717 11.6387 15.3717 11.9924C15.3717 12.3457 15.6581 12.6325 16.0118 12.6325H22.1572C22.5109 12.6325 22.7973 12.3461 22.7973 11.9924C22.7973 11.6387 22.5109 11.3523 22.1572 11.3523Z" fill="#F0BF35"/>
<path d="M10.4293 16.2979H9.84493C9.49123 16.2979 9.20483 16.5842 9.20483 16.9379C9.20483 17.2913 9.49123 17.578 9.84493 17.578H10.4293C10.783 17.578 11.0694 17.2913 11.0694 16.9379C11.0694 16.5846 10.783 16.2979 10.4293 16.2979Z" fill="#F0BF35"/>
<path d="M12.7661 16.2979H12.1825C11.8288 16.2979 11.5424 16.5842 11.5424 16.9379C11.5424 17.2913 11.8288 17.578 12.1825 17.578H12.7661C13.1198 17.578 13.4062 17.2913 13.4062 16.9379C13.4062 16.5846 13.1198 16.2979 12.7661 16.2979Z" fill="#F0BF35"/>
<path d="M22.1572 16.2979H16.0118C15.6581 16.2979 15.3717 16.5842 15.3717 16.9379C15.3717 17.2913 15.6581 17.578 16.0118 17.578H22.1572C22.5109 17.578 22.7973 17.2913 22.7973 16.9379C22.7973 16.5846 22.5109 16.2979 22.1572 16.2979Z" fill="#F0BF35"/>
<path d="M10.4293 21.2434H9.84493C9.49123 21.2434 9.20483 21.5302 9.20483 21.8835C9.20483 22.2369 9.49123 22.5236 9.84493 22.5236H10.4293C10.783 22.5236 11.0694 22.2369 11.0694 21.8835C11.0694 21.5302 10.783 21.2434 10.4293 21.2434Z" fill="#F0BF35"/>
<path d="M12.7661 21.2434H12.1825C11.8288 21.2434 11.5424 21.5302 11.5424 21.8835C11.5424 22.2369 11.8288 22.5236 12.1825 22.5236H12.7661C13.1198 22.5236 13.4062 22.2369 13.4062 21.8835C13.4062 21.5302 13.1198 21.2434 12.7661 21.2434Z" fill="#F0BF35"/>
<path d="M22.1572 21.2434H16.0118C15.6581 21.2434 15.3717 21.5302 15.3717 21.8835C15.3717 22.2369 15.6581 22.5236 16.0118 22.5236H22.1572C22.5109 22.5236 22.7973 22.2369 22.7973 21.8835C22.7973 21.5302 22.5109 21.2434 22.1572 21.2434Z" fill="#F0BF35"/>
</svg>
