<svg width="24" height="32" viewBox="0 0 24 32" fill="none" xmlns="http://www.w3.org/2000/svg">
<path d="M21.913 7.30435H18.7826V2.08696C18.7821 1.53354 18.562 1.00317 18.1707 0.611896C17.7794 0.220621 17.2491 0.000477019 16.6957 0H2.08696C1.53354 0.000465809 1.00317 0.220573 0.611895 0.611896C0.220621 1.00322 0.000477019 1.53356 0 2.08696V29.2174C0.000465809 29.7708 0.220573 30.3012 0.611895 30.6925C1.00322 31.0837 1.53356 31.3039 2.08696 31.3043H16.6957C17.2491 31.3039 17.7794 31.0838 18.1707 30.6925C18.562 30.3011 18.7821 29.7708 18.7826 29.2174V25.0435H21.913C22.4665 25.043 22.9968 24.8229 23.3881 24.4316C23.7794 24.0403 23.9995 23.5099 24 22.9565V9.3913C23.9995 8.83789 23.7794 8.30752 23.3881 7.91624C22.9968 7.52497 22.4664 7.30482 21.913 7.30435V7.30435ZM12 1.04348V1.56522C11.9998 1.85334 11.7664 2.08672 11.4783 2.08696H7.30435C7.01623 2.08672 6.78284 1.85334 6.78261 1.56522V1.04348H12ZM17.7391 29.2174C17.7387 29.4941 17.6287 29.7592 17.4331 29.9548C17.2374 30.1504 16.9724 30.2604 16.6957 30.2609H2.08697C1.81026 30.2604 1.5452 30.1505 1.34956 29.9548C1.15391 29.7592 1.04397 29.4941 1.0435 29.2174V2.08696C1.04397 1.81025 1.15391 1.54519 1.34956 1.34955C1.54521 1.1539 1.81027 1.04396 2.08697 1.04349H5.73914V1.56523C5.73961 1.98029 5.90474 2.37813 6.19799 2.67161C6.49147 2.96486 6.88931 3.13 7.30438 3.13046H11.4783C11.8933 3.13 12.2912 2.96486 12.5847 2.67161C12.8779 2.37813 13.0431 1.9803 13.0435 1.56523V1.04349H16.6957C16.9724 1.04396 17.2375 1.1539 17.4331 1.34955C17.6288 1.54519 17.7387 1.81026 17.7392 2.08696V7.30435H4.17395C3.62054 7.30481 3.09016 7.52492 2.69889 7.91624C2.30761 8.30757 2.08747 8.8379 2.08699 9.3913V22.9565C2.08746 23.5099 2.30757 24.0403 2.69889 24.4316C3.09021 24.8229 3.62055 25.043 4.17395 25.0435H17.7392L17.7391 29.2174ZM22.9565 22.9565C22.9561 23.2332 22.8461 23.4983 22.6505 23.6939C22.4548 23.8896 22.1897 23.9995 21.9131 24H4.17392C3.89722 23.9995 3.63216 23.8896 3.43651 23.6939C3.24087 23.4983 3.13092 23.2332 3.13046 22.9565V9.3913C3.13092 9.1146 3.24086 8.84954 3.43651 8.65389C3.63216 8.45825 3.89723 8.3483 4.17392 8.34784H21.9131C22.1898 8.3483 22.4548 8.45824 22.6505 8.65389C22.8461 8.84954 22.9561 9.11461 22.9565 9.3913V22.9565Z" fill="#F0BF35"/>
<path d="M9.54384 16.5431C9.74881 16.7399 10.0735 16.7367 10.2745 16.5359C10.4753 16.3349 10.4786 16.0102 10.2817 15.8052L8.04178 13.5655L10.2815 11.3258H10.2817C10.4786 11.1208 10.4753 10.7961 10.2745 10.5951C10.0735 10.3943 9.74881 10.3911 9.54384 10.5879L6.93514 13.1966C6.83732 13.2944 6.78235 13.4272 6.78235 13.5655C6.78235 13.7039 6.83732 13.8367 6.93514 13.9345L9.54384 16.5431Z" fill="#F0BF35"/>
<path d="M16.5429 10.5874C16.338 10.3906 16.0133 10.3939 15.8122 10.5946C15.6115 10.7956 15.6082 11.1203 15.805 11.3253L18.045 13.565L15.8053 15.8047H15.805C15.7063 15.9023 15.6504 16.0356 15.6499 16.1744C15.6494 16.3132 15.7044 16.4467 15.8027 16.545C15.901 16.643 16.0345 16.6982 16.1733 16.6978C16.3123 16.6973 16.4453 16.6414 16.5429 16.5426L19.1516 13.9339C19.2494 13.8361 19.3044 13.7033 19.3044 13.565C19.3044 13.4266 19.2494 13.2939 19.1516 13.196L16.5429 10.5874Z" fill="#F0BF35"/>
<path d="M14.8145 9.43343C14.6873 9.37869 14.5436 9.37706 14.4153 9.42853C14.2867 9.47978 14.184 9.58017 14.1297 9.70734L10.9993 17.0117C10.8859 17.2765 11.0086 17.5833 11.2732 17.6964C11.538 17.8099 11.8448 17.6871 11.958 17.4225L15.0884 10.1182C15.1429 9.99101 15.1448 9.8473 15.0933 9.71896C15.0418 9.59039 14.9417 9.48767 14.8145 9.4334L14.8145 9.43343Z" fill="#F0BF35"/>
<path d="M11.4785 19.304H5.21766C4.92954 19.304 4.69592 19.5376 4.69592 19.8257C4.69592 20.1138 4.92954 20.3474 5.21766 20.3474H11.4785C11.7639 20.3435 11.9931 20.111 11.9931 19.8257C11.9931 19.5404 11.7639 19.3079 11.4785 19.304Z" fill="#F0BF35"/>
<path d="M9.39095 21.3911H5.21703C4.9317 21.3951 4.70251 21.6275 4.70251 21.9129C4.70251 22.1982 4.93171 22.4306 5.21703 22.4346H9.39095C9.67627 22.4306 9.90546 22.1982 9.90546 21.9129C9.90546 21.6275 9.67627 21.3951 9.39095 21.3911Z" fill="#F0BF35"/>
<path d="M7.30407 29.2178H11.478C11.7633 29.2138 11.9925 28.9814 11.9925 28.6961C11.9925 28.4107 11.7633 28.1783 11.478 28.1743H7.30407C7.01874 28.1783 6.78955 28.4107 6.78955 28.6961C6.78955 28.9814 7.01875 29.2138 7.30407 29.2178Z" fill="#F0BF35"/>
</svg>
