<svg width="32" height="32" viewBox="0 0 32 32" fill="none" xmlns="http://www.w3.org/2000/svg">
<circle opacity="0.1" cx="16" cy="16" r="16" fill="white"/>
<path d="M23.1497 12.6394C23.1613 12.7993 23.1613 12.9592 23.1613 13.1191C23.1708 14.5001 22.9058 15.8692 22.3816 17.1469C21.8575 18.4245 21.0847 19.5853 20.1081 20.5618C19.1316 21.5383 17.9707 22.311 16.693 22.835C15.4153 23.359 14.0462 23.624 12.6652 23.6144C10.6566 23.6193 8.68932 23.0438 7 21.9571C7.29578 21.9897 7.59321 22.0049 7.89076 22.0027C9.55087 22.0074 11.1642 21.4528 12.4705 20.4284C11.7008 20.4142 10.9547 20.16 10.3364 19.7013C9.7181 19.2425 9.25852 18.6022 9.02182 17.8696C9.25235 17.9061 9.48529 17.9252 9.71869 17.9268C10.0464 17.9257 10.3727 17.8834 10.6898 17.8008C9.85437 17.632 9.10313 17.1791 8.56373 16.5192C8.02433 15.8593 7.73003 15.0329 7.73084 14.1806V14.135C8.24193 14.4202 8.81317 14.5806 9.39801 14.6032C8.6152 14.0809 8.06117 13.2796 7.84898 12.3628C7.63679 11.446 7.78243 10.4827 8.25618 9.66961C9.18317 10.8106 10.3397 11.7439 11.6507 12.409C12.9618 13.074 14.398 13.456 15.8662 13.5301C15.807 13.2522 15.7765 12.969 15.775 12.6849C15.7765 11.9459 15.9997 11.2242 16.4159 10.6134C16.832 10.0026 17.4219 9.53076 18.1091 9.25888C18.7964 8.98701 19.5494 8.92765 20.2708 9.08848C20.9922 9.24931 21.6487 9.62292 22.1554 10.161C22.9816 10.002 23.774 9.70055 24.497 9.27022C24.2219 10.1225 23.6454 10.8452 22.8754 11.3028C23.6081 11.2195 24.3242 11.0271 25 10.7319C24.4948 11.4667 23.8692 12.111 23.1497 12.6377V12.6394Z" stroke="white" stroke-width="0.5"/>
</svg>
