<svg width="24" height="24" viewBox="0 0 24 24" fill="none" xmlns="http://www.w3.org/2000/svg">
<path d="M20.2498 0H3.75007C1.68231 0 0 1.68231 0 3.75007V20.2498C0 22.3176 1.68231 23.9998 3.74994 23.9998H20.2497C22.3175 23.9998 23.9996 22.3175 23.9996 20.2498L24 3.75007C24 1.68231 22.3177 0 20.2499 0H20.2498ZM3.75007 1.49998H20.2498C21.4903 1.49998 22.4998 2.50941 22.4998 3.74989V5.9998L1.49971 5.99998V3.75007C1.49971 2.50959 2.50932 1.49998 3.7498 1.49998L3.75007 1.49998ZM20.2498 22.5H3.75007C2.5096 22.5 1.50017 21.4906 1.50017 20.2501L1.49999 7.50019H22.5V20.2501C22.5002 21.4906 21.4906 22.5002 20.2501 22.5002L20.2498 22.5Z" fill="#F0BF35"/>
<path d="M4.27674 4.28257C4.57965 3.97966 4.57307 3.51453 4.27674 3.21763C3.99925 2.94015 3.49676 2.94015 3.21927 3.21763C2.92969 3.52215 2.93129 3.97894 3.21927 4.28257C3.53268 4.57944 3.99246 4.56521 4.27674 4.28257Z" fill="#F0BF35"/>
<path d="M7.27632 4.28257C7.57924 3.97966 7.57266 3.51453 7.27632 3.21763C6.99884 2.94015 6.49635 2.94015 6.21885 3.21763C5.93159 3.52055 5.92643 3.9743 6.21885 4.28257C6.53226 4.57944 6.99204 4.56521 7.27632 4.28257Z" fill="#F0BF35"/>
<path d="M16.2802 11.47C15.9869 11.1767 15.513 11.1767 15.2197 11.47C14.9264 11.7633 14.9264 12.238 15.2197 12.5305L17.6895 15.0002L15.2197 17.47C14.9264 17.7633 14.9264 18.238 15.2197 18.5304C15.5131 18.8238 15.9878 18.8238 16.2802 18.5304L19.2802 15.5304C19.5735 15.2371 19.5735 14.7632 19.2802 14.47L16.2802 11.47Z" fill="#F0BF35"/>
<path d="M8.78047 11.47C8.48716 11.1767 8.01329 11.1767 7.72 11.47L4.71998 14.47C4.42667 14.7633 4.42667 15.238 4.71998 15.5305L7.72 18.5305C8.01331 18.8238 8.48804 18.8238 8.78047 18.5305C9.07378 18.2372 9.07378 17.7633 8.78047 17.47L6.31072 15.0003L8.78047 12.5305C9.07361 12.2372 9.07361 11.7633 8.78047 11.47V11.47Z" fill="#F0BF35"/>
<path d="M13.7362 9.78784C13.3409 9.65515 12.9187 9.86967 12.7874 10.2619L9.78738 19.262C9.65611 19.6549 9.86831 20.0795 10.2614 20.2107C10.6515 20.3413 11.0782 20.1319 11.2102 19.7367L14.2102 10.7366C14.3422 10.3435 14.1293 9.91912 13.7362 9.78784Z" fill="#F0BF35"/>
<path d="M14.9997 4.49985H20.2495C20.6634 4.49985 20.9994 4.16385 20.9994 3.74992C20.9994 3.33602 20.6634 3 20.2495 3H14.9997C14.5858 3 14.2498 3.336 14.2498 3.74992C14.2496 4.16383 14.5856 4.49985 14.9997 4.49985Z" fill="#F0BF35"/>
</svg>
