<svg width="34" height="35" viewBox="0 0 34 35" fill="none" xmlns="http://www.w3.org/2000/svg">
<path d="M32.2745 32.2864L32.2745 32.2863C33.0909 31.2542 33.3862 29.9282 33.0843 28.6496L33.0479 28.4955H33.0468C31.5719 22.5178 27.002 18.7948 21.0897 18.7948H12.9102C6.94736 18.7948 2.34974 22.5819 0.915993 28.6495C0.613438 29.9277 0.909407 31.254 1.72601 32.286C2.54614 33.323 3.77466 33.9179 5.09562 33.9179H28.9052C30.2259 33.9179 31.4541 33.323 32.2745 32.2864ZM31.1024 29.1185C31.2605 29.7874 31.106 30.4809 30.6772 31.0234L30.677 31.0234C30.245 31.5692 29.5996 31.8821 28.9042 31.8821H5.0954C4.40038 31.8821 3.75463 31.5695 3.32263 31.0234L3.3226 31.0233C2.89368 30.4814 2.73894 29.7875 2.89713 29.1178C3.51321 26.511 4.75908 24.4412 6.47373 23.0234C8.18774 21.606 10.3812 20.8309 12.91 20.8309H21.0895C23.6183 20.8309 25.8116 21.6061 27.5256 23.0236C29.2402 24.4416 30.4861 26.5116 31.1024 29.1185ZM17 17.5589C21.6207 17.5589 25.3794 13.8002 25.3794 9.17947C25.3794 4.55876 21.6207 0.8 17 0.8C12.3793 0.8 8.6205 4.55876 8.6205 9.17947C8.6205 13.8002 12.3793 17.5589 17 17.5589ZM17 2.83589C20.4974 2.83589 23.3437 5.68184 23.3437 9.17961C23.3437 12.677 20.4977 15.5233 17 15.5233C13.5025 15.5233 10.6562 12.6774 10.6562 9.17961C10.6562 5.68219 13.5025 2.83589 17 2.83589Z" fill="white" stroke="white" stroke-width="0.4"/>
</svg>
