<svg width="24" height="24" viewBox="0 0 24 24" fill="none" xmlns="http://www.w3.org/2000/svg">
<path d="M20.2498 0H3.75007C1.68231 0 0 1.68231 0 3.75007V20.2498C0 22.3176 1.68231 23.9998 3.74994 23.9998H20.2497C22.3175 23.9998 23.9996 22.3175 23.9996 20.2498L24 3.75007C24 1.68231 22.3177 0 20.2499 0H20.2498ZM3.75007 1.49998H20.2498C21.4903 1.49998 22.4998 2.50941 22.4998 3.74989V5.9998L1.49971 5.99998V3.75007C1.49971 2.50959 2.50932 1.49998 3.7498 1.49998L3.75007 1.49998ZM20.2498 22.5H3.75007C2.5096 22.5 1.50017 21.4906 1.50017 20.2501L1.49999 7.50019H22.5V20.2501C22.5002 21.4906 21.4906 22.5002 20.2501 22.5002L20.2498 22.5Z" fill="#F0BF35"/>
</svg>
